<svg xmlns="http://www.w3.org/2000/svg" viewBox="0 0 1024 3660"><defs><style>.a{opacity:0.6;}.b{opacity:0.8;}.c{fill:#adcafa;}.d{fill:#edf4fe;}.e{fill:#c9dcfc;}.f{fill:#d3e3fc;}.g{fill:#dae7fd;}.h{fill:#e4eefd;}.i{fill:#c1d7fb;}.j{fill:#9bd6b9;}.k{fill:#e9f6f0;}.l{fill:#daf0e5;}.m{fill:#bde4d1;}.n{fill:#cae9da;}.o{fill:#d1ecdf;}.p{fill:#def2e8;}.q{fill:#bce4d1;}.r{fill:#fffaee;}.s{fill:#fff1ca;}.t{fill:#fff4d4;}.u{fill:#fff5da;}.v{fill:#fff8e5;}.w{fill:#ffefc2;}.x{fill:#fff1c9;}</style></defs><title>bg-img2</title><g class="a"><g class="b"><g class="b"><path class="c" d="M831.86,1121.3c-15.68-10.93-19.94,9.16-28.18,26.54,2.38-1.73,4.8-3.33,7.26-5Q821.36,1131.89,831.86,1121.3Z"/><path class="c" d="M810.94,1142.86c-2.46,1.64-4.88,3.24-7.26,5-1,2.19-2.1,4.25-3.26,6.22C803.87,1150.31,807.4,1146.56,810.94,1142.86Z"/><path class="c" d="M839.06,1127.64a49.86,49.86,0,0,0-7.2-6.35q-10.53,10.57-20.92,21.56A177.24,177.24,0,0,1,839.06,1127.64Z"/><path class="c" d="M800.42,1154.05l-5.61,6.1c-1.87,2-3.72,4.11-5.51,6.15a24.45,24.45,0,0,0,6.16-5.21A43.62,43.62,0,0,0,800.42,1154.05Z"/><path class="d" d="M794,1525.41a233.33,233.33,0,0,1-2.61-32.84,189.73,189.73,0,0,1,2.21-31.11c.13-1.27.38-2.52.63-3.77l.69-3.75c.38-2.51,1-5,1.54-7.41.24-1.23.62-2.45.92-3.68s.59-2.45,1-3.68c.74-2.45,1.36-4.9,2.2-7.35,1.48-4.9,3.36-9.79,5.22-14.69,2-4.9,4.05-9.8,6.46-14.69,9.3-19.59,21.79-39.21,36.64-58.51,7.42-9.65,15.5-19.21,24-28.67s17.6-18.8,27-28.05c-13.68,7.28-27,14.72-39.23,22.49a286.23,286.23,0,0,0-33.3,24.17,146.91,146.91,0,0,0-35.51,43A141.31,141.31,0,0,0,775.7,1427a138.86,138.86,0,0,0-.85,25.34c.13,2.1.21,4.19.38,6.28l.75,6.27.38,3.11.56,3.12,1.09,6.18,1.43,6.16.7,3.05c.27,1,.58,2,.86,3.05l1.71,6.06,2,6,1,3c.33,1,.75,2,1.11,3l2.22,5.94c.78,2,1.65,4,2.45,5.92l1.2,2.94C793,1523.45,793.53,1524.43,794,1525.41Z"/><path class="d" d="M788.13,1522.11l-2.45-6c-.44-1-.81-2-1.16-3l-1.11-3-1.13-3-.57-1.52-.49-1.52-2-6.12-.51-1.54-.42-1.54-.86-3.08-.88-3.1-.44-1.56-.36-1.55c-.93-4.14-2-8.35-2.66-12.55a174.44,174.44,0,0,1-2.72-25.58,147.4,147.4,0,0,1,1.55-25.94,149.11,149.11,0,0,1,17.48-51A152.37,152.37,0,0,1,826,1326.87a300.71,300.71,0,0,1,34-24.33c12.5-7.8,25.92-15.29,39.83-22.57,1.9-1.85,3.85-3.69,5.8-5.52s3.91-3.67,5.89-5.5l6.08-5.59,6.29-5.71,26.73-23.88c18.51-16.53,38.38-34.49,58.56-55.09,10.09-10.32,20.26-21.38,30.29-33.31,2.51-2.94,5-6.06,7.49-9.12s4.95-6.31,7.41-9.48c4.89-6.51,9.73-13.15,14.41-20.16a385.06,385.06,0,0,0,26.2-45,365.89,365.89,0,0,0,20.22-50.21l1.28-5.62c.44-1.87.85-3.74,1.21-5.59l2.26-11.08,2-10.93c.68-3.64,1.19-7.2,1.8-10.8q3.42-21.45,5.61-41.87c1.44-13.58,2.58-26.83,3.51-39.77s1.55-25.51,2.09-37.84c-.25-7.36-.64-14.68-1.14-22.12-.29-3.75-.52-7.44-.87-11.23s-.69-7.56-1.1-11.38c-1.62-15.26-3.94-30.94-7.2-47a428.75,428.75,0,0,0-13-49.11,373.24,373.24,0,0,0-20.67-50.2c-2.11-4.18-4.2-8.34-6.57-12.48s-4.6-8.32-7.15-12.29-5-8-7.58-12-5.31-7.65-8-11.45A379,379,0,0,0,1027,567.22c-1.51-1.58-3-3.18-4.54-4.73l-4.58-4.48-4.6-4.47c-1.54-1.48-3.08-3-4.62-4.37l-9.3-8.38c-1.56-1.42-3.11-2.71-4.67-4L990,532.84l-4.69-3.92c-1.56-1.28-3.11-2.48-4.67-3.72-3.11-2.45-6.25-4.95-9.37-7.33-6.2-4.62-12.47-9.33-18.63-13.59-6.22-4.45-12.31-8.45-18.46-12.59l-9.1-5.88-4.54-2.9-4.49-2.79c-12-7.51-23.72-14.42-35.13-21-22.7-13-45.6-25.75-68.81-37.85q-69.57-36.45-141.78-67.54c-48.06-20.82-96.89-39.78-146.24-57.37s-99.26-33.71-149.58-48.63C273.87,218,171.55,193.09,68.1,171,56,168.42,17.58,162.43-21,158.79s-77.37-5.27-90.77-.37l-44.13,2.78-1.24,6.62c36.93,7.61,73.08,17.36,114.35,21.38C-18.66,194,6.86,191.74,31,196.76c54.33,11.34,105.29,24.54,158.11,37.18S296.66,258.8,359,269c19.12,1.69,41.73,14.09,64.09,26.76,5.6,3.12,11.17,6.37,16.69,9.41s11,5.92,16.34,8.47c10.71,5.15,21,9.1,30.52,10.32A821.53,821.53,0,0,1,589.39,361.1c32.42,14.16,63.22,29.77,93.32,45.76s59.39,32.76,89,49c29.61,16.45,59.44,32.66,90.86,48.05,26.09,12.56,51.26,25,75.63,39.44l9.1,5.5c3,1.83,6,3.84,9,5.75l4.48,2.9c1.49,1,3,2,4.46,3l8.86,6.17,8.76,6.57c1.45,1.11,2.91,2.19,4.36,3.33l4.31,3.52c2.87,2.37,5.74,4.68,8.57,7.14l8.42,7.61c2.82,2.49,5.54,5.27,8.27,8l4.09,4.13c1.36,1.37,2.72,2.76,4,4.25q4,4.4,7.91,8.88c.65.75,1.32,1.49,2,2.26l1.9,2.36,3.79,4.77c5.12,6.27,9.78,13.22,14.51,20.14,2.29,3.52,4.46,7.16,6.67,10.8,1.13,1.82,2.11,3.67,3.14,5.52l3,5.59c15.84,30,26.18,62.89,31.35,97,3.12,15,7.84,33.24,11.49,51.19,1.81,9,3.47,17.83,4.65,26.29l.84,6.26c.24,2.07.44,4.13.63,6.13s.35,4,.47,5.9.17,3.84.22,5.67c-.05,5.95-.31,12-.54,18.07s-.66,12.19-1.2,18.39c-1,12.35-2.43,24.86-4.56,37.59-.47,3.15-1.07,6.35-1.68,9.55s-1.16,6.36-1.9,9.59l-2.13,9.63-2.45,9.68a369.58,369.58,0,0,1-12.57,38.73c-1.23,3.21-2.62,6.42-3.94,9.62-.68,1.59-1.33,3.2-2,4.78l-2.16,4.7-2.18,4.68-2.28,4.59-2.3,4.58-2.4,4.48a363.72,363.72,0,0,1-20.73,33.89,450.47,450.47,0,0,1-46.77,56.78c-16.12,16.74-32.39,31.61-48.22,45.4s-31.29,26.49-46,38.69-28.21,23.58-41.42,35.56-25.76,24.12-37.65,36.67c-4.85,6.29-10.9,11.56-17.53,16.55s-13.76,9.71-20.6,14.8a105.88,105.88,0,0,0-18.52,16.77c-5.23,6.21-9,13.23-10.5,21.12-1.61,22-2.18,42.3-1.08,61.38l.19,3.56.3,3.54.27,3.5.41,3.51q.4,3.5.73,6.94l1,6.89.49,3.41.65,3.41c.44,2.27.81,4.51,1.26,6.76,1.1,4.51,1.91,8.93,3.23,13.37a7.28,7.28,0,0,1-.73,3.44,27.72,27.72,0,0,1-2.2,3.72c-1.78,2.61-4.22,5.49-6.64,8.77a46.44,46.44,0,0,0-6,11.1,25.35,25.35,0,0,0-1.34,6.52,24.07,24.07,0,0,0,.42,7.13c.78,4.83,1.48,9.64,2.68,14.39.57,2.38,1.07,4.76,1.74,7.11l2.09,7c.67,2.34,1.51,4.65,2.34,7s1.66,4.6,2.54,6.88l2.86,6.79,1.45,3.37,1.59,3.33A315.49,315.49,0,0,0,804,1638.17c11.54,15.89,24,31,36.68,45.86s25.53,29.49,37.91,44.62q-.84-3.58-1.76-7.06c-.6-2.33-1.19-4.65-1.82-6.94-11.29-15.93-21.91-32-31.53-48.18a547.28,547.28,0,0,1-25.85-48.73l-1.43-3-1.34-3.05-2.68-6.09c-.9-2-1.67-4.06-2.51-6.09s-1.68-4-2.46-6.07c-3.07-8.1-6-16.16-8.44-24.17l-1.85-6-1.62-6c-1.17-4-2-7.92-2.95-11.85-.52-2-.84-3.93-1.24-5.88l-1.18-5.85-.92-5.8C788.69,1525.95,788.31,1524,788.13,1522.11Z"/><path class="d" d="M1043,1857.15a169.85,169.85,0,0,1-33.7-4.53,216.84,216.84,0,0,0,46.57,27.37,240,240,0,0,0,55.15,16.19c4.83.7,9.67,1.53,14.57,1.94l7.34.69,7.37.38,3.69.17c1.23,0,2.46,0,3.69,0h7.38c2.46,0,4.92-.19,7.37-.3s4.91-.2,7.35-.47c4.89-.47,9.76-.9,14.59-1.69,2.41-.37,4.83-.69,7.22-1.14l7.15-1.43c1.19-.25,2.37-.48,3.55-.75l3.52-.88,7-1.81c2.31-.67,4.6-1.4,6.88-2.11s4.55-1.4,6.78-2.26a360.24,360.24,0,0,1-47.8,1.66,365.82,365.82,0,0,1-47-4.62A361.8,361.8,0,0,1,1043,1857.15Z"/><path class="d" d="M948.21,1801.25c.31.74.57,1.52.86,2.27l-2.51-2.28-2.43-2.37-4.85-4.71c-1.6-1.58-3.12-3.24-4.68-4.85s-3.15-3.19-4.61-4.89c-3-3.35-6-6.6-8.81-10.07l-4.33-5.17-4.89-6q-19.53-24-37-48.52c.63,2.29,1.22,4.61,1.82,6.94s1.2,4.67,1.76,7.06c3.64,4.51,7.36,9,10.91,13.62,1.8,2.29,3.61,4.59,5.37,6.93l5.27,7q2.62,3.55,5.16,7.18t5.08,7.3l2.44,3.67,2.12,3.3c1.41,2.21,2.73,4.52,4.14,6.77q2.2,3.61,4.54,7.3c.76,1.24,1.6,2.42,2.44,3.62l2.53,3.59a161.09,161.09,0,0,0,22.9,10.69c.57,1.53,1.24,2.92,1.83,4.43a51.31,51.31,0,0,0,3.55,6.72,31.88,31.88,0,0,0,2.22,3.17q1.19,1.54,2.51,3a67.1,67.1,0,0,0,12.56,10.92c9.71,6.47,21.79,11.45,35.22,14.7l-3.5-2.71-3.39-2.85c-2.23-1.92-4.47-3.75-6.55-5.73q-3-2.73-6-5.31c-2-1.7-4-3.52-6-5.21l-3-2.52c-1-.82-2-1.72-3-2.55q-3-2.54-6-5c-3.89-3.42-8-6.52-11.88-9.85l-3-2.42c-1-.79-2-1.58-3-2.42Q951.21,1803.63,948.21,1801.25Z"/><path class="e" d="M790.65,1924.44l-11.95-16.92-2.93-4-.73-1-.36-.49-.29-.43-1.17-1.7q-2.34-3.38-4.72-6.59c-6.33-8.59-12.77-16.48-19.31-23.93-13.08-14.9-26.57-28.07-40.07-41.7s-27-27.75-39.61-44.59a244.73,244.73,0,0,1-33.71-60.95c-14.15-35.3-27.75-70.93-39.17-108.21-5.73-18.61-10.7-37.8-14.8-57.42a517.87,517.87,0,0,1-9-60.32,443.26,443.26,0,0,0,5.09,69.16,497.33,497.33,0,0,0,14.48,65.15c12.27,41.86,29,80.28,48,115.72a770.72,770.72,0,0,0,63.41,98.16q17.14,22.72,35.34,43.73c3,3.55,6.08,7,9.14,10.44s6.15,6.87,9.24,10.26l4.68,5.11,5.78,6,5.82,6c2,2,4,3.89,6,5.84C780.39,1927.33,783.19,1924.22,790.65,1924.44Z"/><path class="f" d="M1196.81,1979.66a129.45,129.45,0,0,1-45.88,12.66c-17.94,1.68-38.69.37-61.81-5.43a289.87,289.87,0,0,1-54.22-20.13,393.1,393.1,0,0,1-46.33-26.82c-14.32-9.55-27.66-19.43-40.5-29.24s-25.28-19.45-38-28.66l-6.47-5.14c-2.16-1.71-4.26-3.52-6.41-5.27s-4.33-3.46-6.42-5.3l-6.36-5.42c-1.06-.91-2.15-1.78-3.19-2.71l-3.14-2.79-6.33-5.56-6.22-5.74c-2.07-1.92-4.2-3.79-6.21-5.8-4.07-3.95-8.27-7.9-12.17-11.81l-6-5.88-6-5.93c-4-3.93-8-8-12-12l-12-12.14c-16-16.34-31.93-33.24-47.27-51a608.68,608.68,0,0,1-43.33-56.6,414.31,414.31,0,0,1-35.1-63.63,308.27,308.27,0,0,1-21.21-70.39c-4-24.28-4.69-49.12-1.24-73.08q.72-4.49,1.51-8.93c.27-1.48.52-3,.83-4.42l1-4.39q1-4.38,2.17-8.69c.8-2.87,1.75-5.71,2.65-8.52,1.77-5.64,3.93-11.15,6.23-16.53q1.8-4,3.67-7.95t4-7.71c10-18.87,20.55-36.87,31.85-54.28q8.45-13.07,17.34-25.79t18.31-25.18q18.71-25,39.3-49.24T834.73,1206c29.66-31.78,62-63.2,91.64-97.82,14.78-17.31,28.87-35.4,41.2-54.68a309.76,309.76,0,0,0,30.66-61.21,120.61,120.61,0,0,0,6.2-28.61,225.39,225.39,0,0,0,.67-31.48c-.41-10.56-1.47-21-2.39-31-.43-5-1-9.89-1.26-14.63s-.62-9.34-.76-13.77c-.36-14.74-1.28-29.41-2.85-43.72a404.28,404.28,0,0,0-6.7-42c-5.86-27.27-15.14-53-28.47-75.73a232.07,232.07,0,0,0-22.93-32,281.25,281.25,0,0,0-27.87-28,367.33,367.33,0,0,0-31.22-24.55c-10.85-7.69-22.05-15-33.49-22a290.87,290.87,0,0,1-42.38-30.69c-5.59-4.93-10.58-9.92-15.43-14.76s-9.5-9.65-14.28-14.47c-2.39-2.41-4.81-4.83-7.3-7.24s-5.11-4.74-7.82-7.11a218.88,218.88,0,0,0-18.07-14.18,222.07,222.07,0,0,0-23.16-13.77q-3.29-1.71-6.8-3.41t-7.32-3.28c-5-2.18-10.42-4.35-16.16-6.5-5.52-2.61-12.4-9.62-19.34-16.69s-13.92-14.18-19.62-16.54C517.84,403.52,380.58,359.89,242,321.69S-36.37,250.35-173.34,217.86A131.08,131.08,0,0,0-181.69,263C-86.6,278.79,8.53,302.4,100.83,329.45s181.66,57.61,266,86.59L388,423.88l21.13,7.9,10.58,3.9,10.54,4,21.09,7.89c14,5.41,28.07,10.57,42,16.06,7,2.72,14,5.34,21,8.1l20.88,8.24c27.78,11.11,55.5,22.31,82.89,34.2,13.77,5.79,27.33,12,41,18l20.31,9.37,10.15,4.69,10.07,4.85,20.13,9.73,20,10.05c3.32,1.69,6.67,3.32,10,5.07l9.88,5.21,9.87,5.22c3.29,1.75,6.6,3.45,9.84,5.28,13,7.22,26.15,14.37,38.75,21.84s24.92,15.08,36.62,23.13c23.39,16.07,44.64,33.8,61.45,53.73a176,176,0,0,1,35.8,66.19c7,22.89,10.7,48.15,12.24,74.56.76,13.17,1.06,26.88.8,40.19s-1,26.44-2.49,39.18a290.71,290.71,0,0,1-6.56,36.85,218.17,218.17,0,0,1-11.08,33.61l-1.72,4-1.85,4c-.59,1.33-1.26,2.64-1.92,4s-1.27,2.64-2,3.94c-2.71,5.25-5.72,10.44-8.83,15.63s-6.54,10.32-10.08,15.44-7.25,10.23-11.17,15.3a54,54,0,0,1,7.9,5.44,231.65,231.65,0,0,0-24.41,15.28q-2.17,2.6-4.4,5.19c-1.47,1.73-2.95,3.45-4.46,5.18a31.6,31.6,0,0,1-4.16,6.4,18.71,18.71,0,0,1-5.57,4.56c3.23-3.67,6.58-7.31,9.73-11a47.42,47.42,0,0,0,2.55-5.79c-16.55,12.49-32.36,27.33-47.69,43.77a639.15,639.15,0,0,0-43.59,52.52c-13.57,18.11-25.55,36-36.7,51.75s-21.47,29.45-32.27,39.37a289.11,289.11,0,0,0-50.24,61.05A296.12,296.12,0,0,0,639.89,1396c-.95,3.61-1.81,7.26-2.68,10.9s-1.54,7.37-2.28,11.07-1.27,7.46-1.86,11.21l-1.37,11.28c-.2,1.88-.47,3.76-.6,5.65l-.4,5.67-.37,5.68c-.11,1.89-.26,3.79-.27,5.68l-.16,11.37,0,2.84.09,2.83.2,5.67c.16,7.58.95,15.06,1.59,22.56.44,3.73.95,7.44,1.44,11.15.26,1.85.48,3.72.78,5.55l1,5.5a363.76,363.76,0,0,0,10.17,42.93l3.21,10.37,3.53,10.17c.6,1.69,1.17,3.38,1.79,5.05l1.93,5c1.3,3.3,2.54,6.62,3.89,9.87,2.77,6.46,5.44,12.94,8.43,19.18,1.48,3.13,2.86,6.31,4.42,9.36l4.58,9.18c6.23,12.09,12.65,23.85,19.38,35.1s13.56,22.17,20.41,32.78c13.84,21.1,27.82,40.9,41.2,59.8s26.25,36.84,37.87,54.31l4.69,6.42,4.75,6.31c3.15,4.21,6.37,8.31,9.57,12.41l2.4,3.06c.83,1,1.8,2.17,2.69,3.25l5.49,6.52c1.81,2.19,3.72,4.27,5.62,6.36l5.7,6.24A383.77,383.77,0,0,0,996.37,1986a354.18,354.18,0,0,0,112.56,17.71,310.46,310.46,0,0,0,102.09-18A121.13,121.13,0,0,1,1196.81,1979.66Z"/><path class="g" d="M1182.62,1912.27c-2.33-2.08-4.52-4.11-6.53-6s-3.85-3.51-5.49-4.95a187,187,0,0,1-39.09,11.63,224.74,224.74,0,0,1-44,3.4c-30.52-.55-62.94-7-94.24-19.35a314,314,0,0,1-87.87-52.76c-3.29-2.82-6.61-5.6-9.74-8.59s-6.37-5.85-9.38-9l-4.57-4.59c-1.54-1.51-3-3.15-4.43-4.71l-4.38-4.75c-1.46-1.56-2.91-3.29-4.36-4.92-11.62-13.23-22.74-26.7-33.29-40.29a35.13,35.13,0,0,1-5.13-10c-1.51-4.28-3-9.31-4.35-14.78l-4.26-17.35c-.74-3-1.52-6-2.37-8.94s-1.67-5.94-2.62-8.82a153.15,153.15,0,0,0-23.18-31.86q-1.57-1.67-3.18-3.28c-1-1.08-2.09-2.15-3.15-3.21q-3.18-3.15-6.45-6.13t-6.41-5.94c-2.16-1.94-4.32-3.86-6.39-5.81l-6.26-5.81c-2.08-1.94-4-3.93-6-5.93s-3.92-4-5.71-6.11-3.56-4.23-5.24-6.43c-.84-1.1-1.68-2.2-2.46-3.34s-1.52-2.3-2.25-3.47q-2.19-3.52-4.1-7.25a84.41,84.41,0,0,1-3.24-7.81q-.72-2-1.35-4.1c-.39-1.4-.72-2.83-1-4.28-3-12.58-5.17-25.22-7-37.74a356.52,356.52,0,0,1-3.3-37.35,307.89,307.89,0,0,1,.71-36.59,281.12,281.12,0,0,1,4.91-35.48c9.2-46.36,30.28-89.18,57.89-128.9a599.26,599.26,0,0,1,45.74-57.5q12.39-13.88,25.56-27.34c4.38-4.49,8.83-8.94,13.31-13.37s9.13-8.94,13.8-13.44c18.65-18,38.25-36.39,57.61-56.35,9.68-10,19.29-20.34,28.65-31.27s18.45-22.43,27-34.6a348.46,348.46,0,0,0,23.69-38.69,291.89,291.89,0,0,0,18.19-42.78,296.46,296.46,0,0,0,11-44.67,359.6,359.6,0,0,0,4.53-44.45c.61-14.68.41-29.18-.39-43.48s-2.15-28.33-4-42.44c-3.74-28.19-9.71-56.72-19.61-84.61a296.09,296.09,0,0,0-18-40.95c-1.79-3.31-3.71-6.58-5.56-9.85s-4-6.43-6-9.63l-6.46-9.29-1.62-2.31L989,671.53l-3.46-4.43-3.46-4.42-3.65-4.22-3.65-4.21-1.83-2.1-1.91-2-7.64-8-7.91-7.59a392,392,0,0,0-33.23-27.47c-22.9-16.76-46.74-31-70.62-44.1-6-3.3-11.94-6.46-17.91-9.65L815.87,544c-11.89-6.3-24-12.2-36-18.27-5.43-2.88-7.14-6.28-7.08-10.2s1.89-8.37,3.47-13.2c3.16-9.65,5.35-20.81-9.9-32.55-10.86-6.36-21.73-12.29-32.48-18.08-10.83-5.59-21.56-11-32.22-16.26s-21.29-10.17-31.8-15.05L638.6,406C597.28,387,557.7,368,519.88,343.11c-4.73-5.48-17.82-6.17-34.38-6-8.3.14-17.46.47-26.89.47q-3.54,0-7.12-.07t-7.18-.16c-4.79-.18-9.58-.51-14.3-1-34.21-5.09-66.54-12.9-98.11-21.89q-5.92-1.7-11.79-3.48l-11.74-3.53c-7.81-2.38-15.56-4.88-23.31-7.38-15.5-4.92-30.88-10.17-46.3-15.21s-30.84-10.13-46.36-15q-11.65-3.61-23.38-7t-23.6-6.57c-31.64-8.42-64-15.07-97.82-18.52-36.7-2.3-72.32-9.14-107.85-16.29s-71-14.65-107.06-18.15c-2.28,4.87-4.26,9.77-6,14.69,137,32.49,276.8,65.62,415.36,103.84S517.84,403.52,649.5,456.19c5.69,2.36,12.69,9.47,19.62,16.54s13.82,14.08,19.34,16.69a198.64,198.64,0,0,1,23.48,10.45,167.4,167.4,0,0,1,18.37,11.68c2.76,2,5.4,4.07,8,6.16s5,4.29,7.41,6.49c4.83,4.41,9.51,9,14.37,13.64s9.84,9.66,15.37,14.73c2.76,2.55,5.65,5.13,8.71,7.76q2.3,2,4.73,4l5,4.12c6.82,5.56,14.52,11.28,23.38,17.25s18.72,12.37,30,19.18c11.65,7.13,23,14.51,33.88,22.26,2.7,2,5.46,3.87,8.11,5.89l7.93,6.05c5.15,4.16,10.32,8.3,15.22,12.7A285.33,285.33,0,0,1,940,679.62a232.67,232.67,0,0,1,22.71,31.78c13.19,22.56,22.46,48,28.34,75.22a403.13,403.13,0,0,1,6.75,42c1.58,14.38,2.54,29.19,2.9,44.14.14,4.43.34,9,.76,13.77s.84,9.64,1.26,14.63c.91,10,2,20.47,2.39,31a225.39,225.39,0,0,1-.67,31.48,120.61,120.61,0,0,1-6.2,28.61,309.76,309.76,0,0,1-30.66,61.21c-12.33,19.28-26.42,37.38-41.2,54.68-29.61,34.62-62,66-91.64,97.82q-22.27,23.85-42.83,48.19t-39.3,49.24q-9.37,12.48-18.31,25.18T717,1354.41c-11.31,17.41-21.86,35.41-31.85,54.28q-2.05,3.8-4,7.71t-3.67,7.95c-2.3,5.38-4.46,10.89-6.23,16.53-.91,2.82-1.85,5.65-2.65,8.52s-1.47,5.77-2.17,8.69l-1,4.39c-.31,1.47-.56,2.94-.83,4.42q-.79,4.44-1.51,8.93c-3.45,24-2.72,48.8,1.24,73.08a308.27,308.27,0,0,0,21.21,70.39,414.31,414.31,0,0,0,35.1,63.63,608.68,608.68,0,0,0,43.33,56.6c15.34,17.81,31.26,34.71,47.27,51l12,12.14c4,4,8,8,12,12l6,5.93,6,5.88c3.9,3.92,8.1,7.87,12.17,11.81,2,2,4.14,3.88,6.21,5.8l6.22,5.74,6.33,5.56,3.14,2.79c1,.93,2.13,1.81,3.19,2.71l6.36,5.42c2.09,1.83,4.3,3.52,6.42,5.3s4.24,3.55,6.41,5.27l6.47,5.14c12.7,9.22,25.12,18.86,38,28.66s26.18,19.7,40.5,29.24a393.1,393.1,0,0,0,46.33,26.82,289.87,289.87,0,0,0,54.22,20.13c23.12,5.8,43.87,7.1,61.81,5.43a129.45,129.45,0,0,0,45.88-12.66c-15-8.06-25.08-18.64-31.29-30.27a74.22,74.22,0,0,1-8.34-36.75c3.13,0,7.15.08,11.56.05l6.84-.17C1177.92,1912.48,1180.28,1912.44,1182.62,1912.27Z"/><path class="h" d="M1162.78,1894.41l-4.46-.35-2.22-.18-2.22-.25-8.85-1c-5.87-.85-11.73-1.57-17.56-2.67a228.19,228.19,0,0,1-28.93.08l-7.28-.61-3.65-.33-3.63-.47-7.28-1c-2.42-.39-4.83-.86-7.24-1.31-4.85-.83-9.61-2.05-14.4-3.19-2.4-.56-4.74-1.31-7.11-2s-4.74-1.33-7.06-2.14c-4.64-1.59-9.32-3.11-13.85-5-2.27-.91-4.55-1.8-6.8-2.76l-6.66-3a226.74,226.74,0,0,1-48.37-30.39l-2.69-2.2c-.88-.75-1.74-1.53-2.6-2.29l-5.11-4.6c-1.7-1.52-3.27-3.18-4.88-4.76s-3.2-3.17-4.73-4.81A203.15,203.15,0,0,1,928.56,1799a123.88,123.88,0,0,1-16.33-11.15q-3.63-3.06-6.93-6.2c-.53-.48-1.16-1.16-1.72-1.75l-1.71-1.83q-1.69-1.83-3.27-3.68c-8.38-9.87-14.25-20.2-16.75-30.92-1-5.06-2.16-9.93-3.27-14.79-12.38-15.13-25.23-29.76-37.91-44.62s-25.13-30-36.68-45.86a315.49,315.49,0,0,1-30.42-50.36l-1.59-3.33-1.45-3.37-2.86-6.79c-.88-2.28-1.7-4.58-2.54-6.88s-1.67-4.62-2.34-7l-2.09-7c-.67-2.36-1.17-4.73-1.74-7.11-1.2-4.76-1.9-9.57-2.68-14.39a24.07,24.07,0,0,1-.42-7.13,25.35,25.35,0,0,1,1.34-6.52,46.44,46.44,0,0,1,6-11.1c2.42-3.28,4.87-6.16,6.64-8.77a27.72,27.72,0,0,0,2.2-3.72,7.28,7.28,0,0,0,.73-3.44c-1.33-4.43-2.13-8.86-3.23-13.37-.45-2.24-.82-4.49-1.26-6.76l-.65-3.41-.49-3.41-1-6.89q-.34-3.45-.73-6.94L765,1447l-.27-3.5-.3-3.54-.19-3.56c-1.1-19.07-.53-39.39,1.08-61.38,1.45-7.89,5.27-14.91,10.5-21.12a105.88,105.88,0,0,1,18.52-16.77c6.84-5.09,14-9.82,20.6-14.8s12.68-10.26,17.53-16.55c11.89-12.55,24.53-24.74,37.65-36.67s26.65-23.3,41.42-35.56,30.12-24.9,46-38.69,32.1-28.66,48.22-45.4a450.47,450.47,0,0,0,46.77-56.78,363.72,363.72,0,0,0,20.73-33.89l2.4-4.48,2.3-4.58,2.28-4.59,2.18-4.68,2.16-4.7c.71-1.57,1.36-3.18,2-4.78,1.32-3.2,2.71-6.4,3.94-9.62a369.58,369.58,0,0,0,12.57-38.73l2.45-9.68,2.13-9.63c.74-3.23,1.28-6.39,1.9-9.59s1.2-6.39,1.68-9.55c2.13-12.72,3.54-25.23,4.56-37.59.54-6.2.86-12.28,1.2-18.39s.49-12.12.54-18.07q-.06-2.76-.22-5.67c-.13-1.92-.29-3.89-.47-5.9s-.39-4.06-.63-6.13l-.84-6.26c-1.18-8.45-2.84-17.32-4.65-26.29-3.65-17.94-8.37-36.17-11.49-51.19-5.17-34.16-15.51-67-31.35-97l-3-5.59c-1-1.85-2-3.7-3.14-5.52-2.2-3.64-4.38-7.28-6.67-10.8-4.72-6.92-9.39-13.87-14.51-20.14l-3.79-4.77-1.9-2.36c-.64-.77-1.31-1.51-2-2.26q-3.93-4.48-7.91-8.88c-1.31-1.49-2.67-2.88-4-4.25l-4.09-4.13c-2.73-2.73-5.46-5.51-8.27-8l-8.42-7.61c-2.83-2.46-5.7-4.77-8.57-7.14l-4.31-3.52c-1.45-1.14-2.9-2.22-4.36-3.33l-8.76-6.57-8.86-6.17c-1.48-1-3-2.08-4.46-3l-4.48-2.9c-3-1.91-6-3.92-9-5.75l-9.1-5.5c-24.37-14.41-49.54-26.88-75.63-39.44-31.42-15.39-61.25-31.6-90.86-48.05-29.65-16.28-59-33-89-49s-60.9-31.6-93.32-45.76A821.53,821.53,0,0,0,486.62,324c-9.54-1.23-19.81-5.17-30.52-10.32-5.36-2.55-10.82-5.43-16.34-8.47s-11.09-6.29-16.69-9.41C400.71,283.1,378.1,270.7,359,269c-62.32-10.21-117-22.43-169.83-35.07S85.38,208.1,31,196.76c-24.18-5-49.7-2.77-73.82-7.55-41.27-4-77.42-13.78-114.35-21.38l-4.6,24.49c-2,3.58-3.86,7.2-5.59,10.85,36.11,3.5,71.53,11,107.06,18.15s71.15,14,107.85,16.29c33.77,3.45,66.18,10.1,97.82,18.52q11.87,3.12,23.6,6.57t23.38,7c15.52,4.9,31,9.87,46.36,15s30.8,10.29,46.3,15.21c7.74,2.5,15.5,5,23.31,7.38l11.74,3.53q5.88,1.78,11.79,3.48c31.57,9,63.9,16.79,98.11,21.89,4.72.54,9.51.87,14.3,1q3.59.13,7.18.16t7.12.07c9.43,0,18.59-.33,26.89-.47,16.56-.13,29.66.56,34.38,6C557.7,368,597.28,387,638.6,406l31.27,14.42c10.52,4.88,21.09,10,31.8,15.05s21.39,10.67,32.22,16.26c10.75,5.8,21.62,11.72,32.48,18.08,15.25,11.74,13.06,22.9,9.9,32.55-1.58,4.82-3.41,9.27-3.47,13.2s1.65,7.32,7.08,10.2c12,6.07,24.09,12,36,18.27l17.93,9.3c6,3.19,11.94,6.36,17.91,9.65,23.88,13.07,47.72,27.34,70.62,44.1a392,392,0,0,1,33.23,27.47l7.91,7.59,7.64,8,1.91,2,1.83,2.1,3.65,4.21,3.65,4.22,3.46,4.42,3.46,4.43,1.72,2.23,1.62,2.31,6.46,9.29c2,3.2,4,6.4,6,9.63s3.77,6.54,5.56,9.85a296.09,296.09,0,0,1,18,40.95c9.91,27.9,15.87,56.42,19.61,84.61,1.85,14.11,3.2,28.11,4,42.44s1,28.8.39,43.48a359.6,359.6,0,0,1-4.53,44.45,296.46,296.46,0,0,1-11,44.67,291.89,291.89,0,0,1-18.19,42.78A348.46,348.46,0,0,1,995,1086.91c-8.57,12.18-17.65,23.7-27,34.6s-19,21.31-28.65,31.27c-19.36,20-39,38.33-57.61,56.35q-7,6.75-13.8,13.44c-4.48,4.43-8.93,8.88-13.31,13.37q-13.14,13.46-25.56,27.34a599.26,599.26,0,0,0-45.74,57.5c-27.61,39.72-48.69,82.54-57.89,128.9a281.12,281.12,0,0,0-4.91,35.48,307.89,307.89,0,0,0-.71,36.59,356.52,356.52,0,0,0,3.3,37.35c1.79,12.52,4,25.16,7,37.74.31,1.45.63,2.88,1,4.28s.87,2.76,1.35,4.1a84.41,84.41,0,0,0,3.24,7.81q1.91,3.74,4.1,7.25,1.09,1.76,2.25,3.47c.78,1.14,1.63,2.24,2.46,3.34q2.53,3.29,5.24,6.43c1.8,2.1,3.77,4.11,5.71,6.11s3.91,4,6,5.93l6.26,5.81c2.07,1.95,4.23,3.87,6.39,5.81s4.29,3.92,6.41,5.94,4.33,4,6.45,6.13c1.06,1.05,2.11,2.12,3.15,3.21s2.13,2.17,3.18,3.28a153.15,153.15,0,0,1,23.18,31.86c1,2.88,1.81,5.83,2.62,8.82s1.63,6,2.37,8.94l4.26,17.35c1.4,5.47,2.84,10.5,4.35,14.78a35.13,35.13,0,0,0,5.13,10c10.55,13.58,21.67,27.06,33.29,40.29,1.45,1.63,2.9,3.36,4.36,4.92l4.38,4.75c1.48,1.57,2.89,3.2,4.43,4.71l4.57,4.59c3,3.1,6.2,6,9.38,9s6.45,5.77,9.74,8.59A314,314,0,0,0,993.25,1897c31.3,12.31,63.72,18.8,94.24,19.35a224.74,224.74,0,0,0,44-3.4,187,187,0,0,0,39.09-11.63l-3.25-2.88-2.46-2.21Z"/><path class="e" d="M922.15,819.15c1.56,10.36,2.66,21.27,3.34,32.63s.93,22.76.62,33.72c-.59,21.94-3.52,42.58-9.07,60.59-.15.57-.34,1.35-.62,2.29l-1.08,3.27c-.41,1.26-.86,2.69-1.47,4.17l-.9,2.36c-.31.82-.61,1.69-1,2.52.56-1.07,1-2.26,1.5-3.4s1-2.28,1.49-3.46l1.37-3.6.71-1.8.63-1.87,1.29-3.76c.43-1.26.78-2.59,1.18-3.88.83-2.57,1.49-5.29,2.2-8,.38-1.33.66-2.74,1-4.14l.93-4.19.79-4.31c.27-1.44.55-2.87.75-4.37l.67-4.44c.23-1.47.37-3,.56-4.52s.38-3,.5-4.56l.39-4.64a260.61,260.61,0,0,0,0-38.74A221.92,221.92,0,0,0,922.15,819.15Z"/><path class="e" d="M878,1013.27c-3.84,4.44-7.92,9-12.28,13.59s-9,9.29-13.78,14c-9.62,9.42-19.95,19-30.33,28.33l-30.36,27.25c-9.63,8.67-18.45,16.78-25.81,23.75,19.8-11.34,38.67-22.22,56.36-34.32S856,1060.49,870,1045c0,0,.21-1.53.61-3.95s.93-5.69,1.59-9.19C873.63,1024.89,875.24,1017.13,878,1013.27Z"/><path class="i" d="M879.31,2005.59c3.2,1.76,6.4,3.55,9.63,5.26l9.77,5,4.9,2.45,5,2.31,9.94,4.56c13.38,5.79,26.91,11.18,40.72,15.73,13.75,4.71,27.78,8.53,41.86,12l10.63,2.33,5.32,1.13c1.78.36,3.56.67,5.34,1l10.7,1.91c3.57.6,7.17,1.08,10.75,1.6a456.84,456.84,0,0,0,172.61-8.46c-7.2.39-14.36,1-21.51,1.17-3.58.14-7.15.34-10.71.45l-10.69.26c-1.78,0-3.56.12-5.33.13l-5.33,0-10.64.08-10.62-.13-5.31-.05-5.3-.17-10.59-.31-10.57-.51c-7.06-.26-14.07-.87-21.11-1.31-3.52-.23-7-.61-10.53-.9s-7-.55-10.53-1c-7-.78-14-1.46-21-2.44-14-1.7-28-4.05-42-6.52-14-2.71-28-5.54-41.92-9.09-14-3.37-27.88-7.41-41.82-11.71l-10.41-3.42-5.22-1.72-5.18-1.85-10.4-3.74C886.19,2008.31,882.76,2006.93,879.31,2005.59Z"/><path class="e" d="M1211,1985.69a310.46,310.46,0,0,1-102.09,18A354.18,354.18,0,0,1,996.37,1986a383.77,383.77,0,0,1-159.67-101.7L831,1878c-1.9-2.09-3.81-4.17-5.62-6.36l-5.49-6.52c-.89-1.08-1.86-2.21-2.69-3.25l-2.4-3.06c-3.2-4.09-6.42-8.19-9.57-12.41l-4.75-6.31-4.69-6.42c-11.63-17.48-24.45-35.45-37.87-54.31s-27.36-38.7-41.2-59.8c-6.85-10.61-13.78-21.44-20.41-32.78s-13.15-23-19.38-35.1l-4.58-9.18c-1.55-3.05-2.94-6.23-4.42-9.36-3-6.24-5.66-12.72-8.43-19.18-1.35-3.25-2.6-6.57-3.89-9.87l-1.93-5c-.62-1.67-1.2-3.37-1.79-5.05l-3.53-10.17-3.21-10.37A363.76,363.76,0,0,1,635,1530.65l-1-5.5c-.31-1.84-.52-3.7-.78-5.55-.49-3.71-1-7.42-1.44-11.15-.64-7.5-1.43-15-1.59-22.56l-.2-5.67-.09-2.83,0-2.84.16-11.37c0-1.89.16-3.79.27-5.68l.37-5.68.4-5.67c.14-1.89.4-3.77.6-5.65l1.37-11.28q.88-5.62,1.86-11.21c.74-3.7,1.48-7.4,2.28-11.07s1.73-7.3,2.68-10.9a296.12,296.12,0,0,1,34.05-79.11,289.11,289.11,0,0,1,50.24-61.05c10.79-9.92,21.12-23.58,32.27-39.37s23.13-33.64,36.7-51.75a639.15,639.15,0,0,1,43.59-52.52c15.33-16.43,31.13-31.28,47.69-43.77,1.54-4,2.69-8.24,3.87-12.1a59.38,59.38,0,0,1,3.67-10.12c1.44-2.72,3.15-4.63,5.57-5.29s5.55-.07,9.71,2.22c3.92-5.07,7.58-10.19,11.17-15.3s6.89-10.27,10.08-15.44,6.11-10.38,8.83-15.63c.71-1.3,1.32-2.63,2-3.94s1.33-2.63,1.92-4l1.85-4,1.72-4a218.17,218.17,0,0,0,11.08-33.61,290.71,290.71,0,0,0,6.56-36.85c1.45-12.74,2.24-25.85,2.49-39.18s0-27-.8-40.19c-1.54-26.41-5.21-51.66-12.24-74.56a176,176,0,0,0-35.8-66.19c-16.81-19.93-38.06-37.66-61.45-53.73-11.7-8-24-15.68-36.62-23.13s-25.75-14.62-38.75-21.84c-3.24-1.83-6.55-3.53-9.84-5.28l-9.87-5.22-9.88-5.21c-3.28-1.75-6.64-3.38-10-5.07l-20-10.05-20.13-9.73-10.07-4.85-10.15-4.69-20.31-9.37c-13.66-6-27.22-12.23-41-18-27.39-11.9-55.11-23.1-82.89-34.2l-20.88-8.24c-7-2.76-14-5.38-21-8.1-13.94-5.49-28-10.64-42-16.06l-21.09-7.89-10.54-4-10.58-3.9L388,423.88,366.85,416c-84.36-29-173.67-59.59-266-86.59S-86.6,278.79-181.69,263c.24,42.69,26.14,79,87.77,91.11Q-49.1,367.19-6.1,379.4c28.67,8.22,56.83,16.07,84.44,23.88,55.29,15.49,108.54,30.47,160.4,45.35,6.5,1.83,12.94,3.72,19.37,5.6l19.26,5.57,19.1,5.65c6.36,1.87,12.71,3.71,19,5.63,12.62,3.8,25.21,7.52,37.67,11.4l18.7,5.73,18.57,5.84c49.47,15.53,97.9,31.87,145.78,49.52a922.4,922.4,0,0,1,109,35.36,690.49,690.49,0,0,1,100.65,49.43A860,860,0,0,0,638,586.4c42.23,18.19,83.88,37.7,125,59.09l15.42,8c5,2.7,10.06,5.39,14.89,8.1s9.61,5.42,14.4,8.14c4.59,2.75,9.31,5.47,13.71,8.26,4.55,2.76,8.77,5.59,13.11,8.39l6.22,4.28c1,.72,2.11,1.42,3.08,2.14l3,2.18,3,2.17,1.49,1.08,1.4,1.11,5.64,4.41c1.81,1.49,3.55,3,5.34,4.48.87.75,1.83,1.48,2.63,2.24l2.49,2.28c-1.32-1.67-2.68-3.29-4.2-4.93,1.75,1.44,3.26,2.95,4.85,4.42l2.38,2.21c.39.37.81.73,1.18,1.11l1.09,1.13,4.41,4.49c1.41,1.51,2.7,3,4.08,4.55a135.24,135.24,0,0,1,14,18.66l1.13,1.37.57.69.51.72,2,2.89c.34.49.7,1,1,1.47l.94,1.55,1.9,3.11c.61,1.07,1.17,2.2,1.76,3.3s1.21,2.17,1.72,3.37c1.05,2.36,2.2,4.63,3.12,7.15a160.37,160.37,0,0,1,9,32.6A278.55,278.55,0,0,1,923.87,840c.1,3.28.24,6.52.25,9.86l.06,5,0,5c0,3.33-.13,6.56-.18,9.81s-.26,6.41-.41,9.57a284.15,284.15,0,0,1-2.42,31.3l-.6,4.38-.74,4.39c-.44,3-1.12,5.88-1.69,8.88-.31,1.48-.69,2.93-1,4.41l-.51,2.22c-.18.74-.39,1.45-.59,2.18l-1.18,4.38-1.33,4.28c-.11.49-.2,1.27-.43,2.21l-.78,3.49c-.16.68-.29,1.43-.49,2.19l-.65,2.39-.7,2.64c-.24.92-.57,1.81-.87,2.77l-.93,3c-.34,1-.75,2.05-1.14,3.13l-.59,1.63-.69,1.66c-.48,1.12-.91,2.27-1.44,3.44A138.23,138.23,0,0,1,897.09,989a153.14,153.14,0,0,1-10.66,15.63,176.49,176.49,0,0,1-13,14.95c-9.17,9.39-19,17.28-27.23,21.52-7.75,7.6-13.68,13.15-16,15.47-18.68,17.18-39.46,34.81-61.19,54.29-5.4,4.86-11,10-16.55,15.16l-4.14,3.88-4.12,3.93c-2.75,2.6-5.48,5.27-8.2,7.93q-16.34,16-32.11,33.1a651.57,651.57,0,0,0-59.33,74.57,489,489,0,0,0-48.07,88.84,505,505,0,0,0-14.3,59.85c-.84,5.16-1.76,10.28-2.44,15.49l-1.08,7.8-.85,7.8c-1.24,10.4-1.92,20.86-2.57,31.33-2.13,41.94.68,83.81,6.08,125.22,3.34,28.45,11.27,59.49,22.26,88.34l4.19,10.78c1.43,3.57,3,7,4.45,10.53,3,7,6.19,13.71,9.34,20.39,1.59,3.33,3.26,6.51,4.88,9.73s3.24,6.42,4.92,9.45c3.34,6.12,6.6,12.18,9.94,17.81,13.21,22.79,26,41.47,35.2,54.76l6.23,9c1.85,2.6,3.43,4.87,4.7,6.76,2.55,3.78,3.88,6.06,3.7,6.57a832,832,0,0,0,69.46,79l3.77,2.77,4.48,3.39,9,6.74c3,2.22,6.07,4.34,9.09,6.49s6,4.33,9.12,6.35c6.17,4.1,12.24,8.25,18.52,12.09,3.12,1.94,6.2,3.91,9.33,5.81l9.44,5.57a690.43,690.43,0,0,0,77.23,38.67c3.25,1.45,6.56,2.77,9.86,4.11l9.88,4,9.95,3.8,5,1.91,5,1.79,10,3.6,10.07,3.39c6.68,2.34,13.48,4.33,20.21,6.51,13.56,4.07,27.17,8,41,11.46,13.76,3.59,27.68,6.68,41.72,9.68,7.47.14,14.9.3,22.36.07l5.58-.13c1.86,0,3.72-.1,5.58-.22l11.14-.66a428,428,0,0,0,44.26-5.52c26.52-4.73,44.68-12.93,56.34-21.61a64.32,64.32,0,0,0,7.59-6.7q1.62-1.69,3-3.39a41,41,0,0,0,2.44-3.47,33.76,33.76,0,0,0,5.1-13.89A125.48,125.48,0,0,1,1211,1985.69Z"/></g></g></g><g class="a"><g class="b"><g class="b"><path class="j" d="M627.17,1316.59c-1.74,4.42-1.85,7.61-.79,9.92s3.3,3.8,6.27,4.65a44.79,44.79,0,0,0,10.57,1.4c3.95.12,8.12.17,12.17.34-1.93-1.44-3.78-3.05-5.64-4.65-1.89-.9-3.79-1.77-5.68-2.7l-5.65-2.86C634.63,1320.8,630.92,1318.66,627.17,1316.59Z"/><path class="j" d="M649.75,1328.24c1.86,1.6,3.71,3.22,5.64,4.65a56,56,0,0,1,5.84.53C657.43,1331.79,653.57,1330.1,649.75,1328.24Z"/><path class="j" d="M631.57,1308.08a57,57,0,0,0-4.4,8.51c3.75,2.07,7.46,4.21,11.25,6.09l5.65,2.86c1.89.93,3.79,1.8,5.68,2.7A106.08,106.08,0,0,1,631.57,1308.08Z"/><path class="j" d="M661.23,1333.43c2,.89,4.07,1.75,6.12,2.59s4.09,1.68,6.11,2.47a15.68,15.68,0,0,0-5.48-3.42A33.39,33.39,0,0,0,661.23,1333.43Z"/><path class="k" d="M973.52,1241.66c-42.55-1.88-83.92-6.54-122.55-14.58a505.3,505.3,0,0,1-55.39-14.76,357.25,357.25,0,0,1-48.86-20.17c13.09,16.54,29.29,32.44,45.89,43.56a116.82,116.82,0,0,0,41,17.93c14.67,3.47,30.06,4.55,45.64,4.05a310.64,310.64,0,0,0,47.13-5.54C942.14,1249.23,957.87,1245.48,973.52,1241.66Z"/><path class="l" d="M676.34,1138.84a154.56,154.56,0,0,1-14.66-21.93,163.85,163.85,0,0,1-11-24.35l.23,1.72.31,1.68.66,3.37c.21,1.14.54,2.2.81,3.31s.57,2.22.91,3.3l1.09,3.21.56,1.61.65,1.55,1.34,3.11c.47,1,1,2,1.53,3a61.48,61.48,0,0,0,7.53,11.17,57.44,57.44,0,0,0,4.74,4.89c.85.76,1.68,1.54,2.57,2.27S675.4,1138.16,676.34,1138.84Z"/><path class="k" d="M969.5,1246.79c-15.72,3.72-31.54,7.4-47.39,10.27a315.9,315.9,0,0,1-47.4,5.26,176.83,176.83,0,0,1-45.88-4.38,119,119,0,0,1-41.18-18.3c-16.66-11.32-32.86-27.45-45.95-44.22-3-1.52-5.87-3.19-8.78-4.77s-5.67-3.28-8.36-5-5.36-3.45-8-5.17-5.14-3.54-7.56-5.39-4.81-3.69-7.18-5.53l-3.41-2.84c-1.16-.92-2.2-1.93-3.31-2.88a167.88,167.88,0,0,1-12.22-11.89,163.7,163.7,0,0,1-33.8-54.41,58.48,58.48,0,0,1-3.91-6.06c-.63-1-1.12-2.15-1.67-3.23s-1.06-2.18-1.54-3.31a78.31,78.31,0,0,1-4.34-14.22,110,110,0,0,1-1.55-31l-.25-2.32-.18-2.37-.37-4.74c-.13-1.57-.16-3.21-.26-4.81s-.19-3.2-.24-4.84l-.12-4.92-.07-2.46c0-.83,0-1.48,0-2.23l.07-4.36c0-1.46,0-2.87.1-4.39l.49-9q.45-4.59.83-9.17l1.19-9.37c.08-.77.2-1.57.34-2.37L638,970l.76-4.78a393.39,393.39,0,0,1,9-39.44l1.45-5c.48-1.68.94-3.36,1.51-5.06L654,905.5l3.55-10.24c.56-1.71,1.24-3.42,1.87-5.14l1.92-5.15q7.85-20.61,17.45-41.42T699.72,802A937.64,937.64,0,0,1,750,720.13,1161.16,1161.16,0,0,1,876.47,566.28c11.75-12,23.72-23.79,36-35.24s24.73-22.56,37.41-33.3,25.56-21.09,38.59-30.86,26.17-19,39.31-27.53c6.14-4,24.31-18,41.19-30.77,8.47-6.53,16.48-12.55,22.67-18,1.53-1.32,3-2.75,4.32-4s2.45-2.46,3.5-3.68q.78-.92,1.47-1.82c.45-.59.83-1.12,1.19-1.68a17,17,0,0,0,1.68-3.27l1.92-2c.66-.69,1.22-1.24,1.85-1.88l3.74-3.78c2.3-2.24,4.86-4.8,7-6.85l-1-6.66c-14.62,1.5-35.41,5.24-55.42,19.18a55.67,55.67,0,0,0-9.26,5.77c-3,2.28-5.8,4.84-8.63,7.33s-5.65,5.24-8.57,7.62a66.05,66.05,0,0,1-9.21,6.72c-14.68,8.8-29.22,17.94-43.53,27.67s-28.42,20.07-42.22,31.42c-27.56,22.71-54.08,49.44-77.67,84.23-6,11.49-21.32,19.61-36.5,28.47s-30.39,18.06-35.56,30.16C776.08,624.09,761,642.84,746,660.85s-30,35.3-44.24,52.84S674,749,662.2,767.87s-21.9,38.72-29,60l-2,6.53c-.65,2.15-1.28,4.29-1.82,6.41-1.11,4.24-2.2,8.4-3.21,12.5l-2.65,12.09c-.84,4-1.48,7.87-2.21,11.72-2.67,15.39-4.49,29.89-6,44s-2.56,27.76-3.85,41.61-2.7,27.85-4.19,42.71a51.51,51.51,0,0,0,.52,5.17,57.2,57.2,0,0,0,1.1,5.75c.5,2.08,1.05,4.21,1.63,6.35s1.31,4.24,2,6.36c2.73,8.44,5.71,16.46,7,22.86a255.43,255.43,0,0,0,4.92,30.87c.25,1.26.56,2.48.87,3.7l.91,3.67c.63,2.43,1.36,4.8,2,7.23s1.46,4.74,2.26,7.06l1.22,3.48.6,1.75.67,1.7a196.33,196.33,0,0,0,12.31,26.43,202.12,202.12,0,0,0,16.45,24.54,223.19,223.19,0,0,0,20.94,22.84,263.78,263.78,0,0,0,25.45,21.06,322.34,322.34,0,0,0,29.57,19.12q15.71,9.05,33,17.11c5.56,1.66,10.67,5,15.77,9s10.15,8.75,15.45,13.17c10.54,8.85,22.11,16.53,35.13,14.8,17.67-4.69,34.77-8.35,51.69-11.64s33.66-6.28,50.34-9.68c4.15,0,8.26,5.57,13.55,11s11.76,10.9,20.34,10.7a244.33,244.33,0,0,0,48.82-2.22,438.66,438.66,0,0,0,46.8-9.56c30.58-7.75,59.8-17.22,89.42-22.44-3.72-1.55-7.38-2.88-11-4.18C1086.73,1247.43,1027,1249.53,969.5,1246.79Z"/><path class="m" d="M1258.37,1426a163.6,163.6,0,0,0-47.53,2.73c-14.13,2.89-27.06,7.33-40.06,11.84s-26.09,9.09-40.41,12.13a152.08,152.08,0,0,1-47.63,2.77,707.52,707.52,0,0,0-75.81-1.2c-24.93.77-49.72,2.41-74.85,3.65q42.8,4.28,84.51,5.09t82.6-1.46q40.88-2.31,81-7.92t79.5-14.77C1257.25,1435.71,1256.18,1431.66,1258.37,1426Z"/><path class="n" d="M1491.26,1248.2c-12.19,19.06-33.28,35-66.27,43.68-28,7.05-54.76,8.48-79.9,9.69s-48.69,2.13-70.9,7.87c-31.55,6.26-63.41,15.71-96.12,25.53s-66.25,20-100.57,27.4-69.33,12.17-104,11.11-69-8-100.16-23.56c-29-13.56-58.27-24.18-87.88-34.46-14.79-5.16-29.67-10.2-44.57-15.53s-29.81-10.94-44.57-17.27l-5.54-2.38-5.51-2.48c-3.7-1.61-7.31-3.42-11-5.13l-5.45-2.71c-1.82-.9-3.64-1.81-5.43-2.78l-5.41-2.85-5.35-3-2.68-1.5-2.64-1.56c-1.76-1-3.54-2.07-5.29-3.14-3.47-2.19-7-4.33-10.4-6.66-6.9-4.54-13.59-9.45-20.11-14.63l-4.86-3.94-4.74-4.1c-1.6-1.35-3.13-2.77-4.66-4.2s-3.1-2.83-4.59-4.31c-6-5.85-11.75-12-17.2-18.5a224.82,224.82,0,0,1-28-42.39c-.77-1.52-1.6-3-2.49-4.57s-1.74-3.12-2.69-4.7c-1.95-3.13-3.91-6.38-6-9.66l-1.62-2.48-1.59-2.52-3.3-5.1c-1.11-1.72-2.15-3.47-3.25-5.22s-2.23-3.51-3.26-5.3c-8.52-14.25-16-29.58-18.56-43.51-1.14-5.78-2-11.57-2.86-17.31-.72-5.76-1.52-11.48-2-17.18s-1-11.38-1.39-17c-.18-2.83-.24-5.69-.36-8.52s-.25-5.67-.28-8.49a417.41,417.41,0,0,1,4.65-66,526.51,526.51,0,0,1,13.34-62.6c5.6-20.34,12.22-40.18,19.64-59.67a123.74,123.74,0,0,1,9.6-19.77c1.73-2.85,3.49-5.5,5.27-8s3.69-4.79,5.56-7a132.18,132.18,0,0,1,11.52-11.87c3.95-3.6,7.81-7,11.8-10.44s7.93-6.88,11.81-10.68a127.47,127.47,0,0,0,11.67-12.57,133.06,133.06,0,0,0,11.44-16.12,201.76,201.76,0,0,0,11.32-21.34c1.14-1.92,3.35-3.86,6.08-5.8s6.09-3.81,9.38-5.7,6.59-3.76,9.36-5.61,5.06-3.68,6.25-5.54a944.15,944.15,0,0,1,89.4-125.89q25-29.87,52.43-57.86c18.24-18.62,37.18-36.58,56.85-53.62s40-33.27,60.87-48.38l7.89-5.58,3.94-2.79,4-2.71,8-5.4c2.67-1.77,5.37-3.49,8.05-5.24,5.34-3.53,10.81-6.8,16.22-10.16,2.71-1.67,5.47-3.23,8.2-4.85s5.46-3.23,8.23-4.73l8.27-4.59c2.77-1.5,5.56-2.92,8.33-4.38l4.16-2.18,4.19-2.06c2.8-1.36,5.58-2.76,8.38-4.09,11.22-5.25,22.51-10,33.79-14.17a291.8,291.8,0,0,1,33.63-10,179.16,179.16,0,0,1,32.08-4.64,174.37,174.37,0,0,0-5.79-45.51c-36.19,5.87-70.67,18.84-104,34a880.33,880.33,0,0,0-96.81,52.32q-23.36,14.47-45.82,30t-43.72,32.09c-14.19,11-27.93,22.38-41.25,34s-26,23.55-38.31,35.69a834.72,834.72,0,0,0-93.51,104.09,981,981,0,0,0-76.83,117.87,962.93,962.93,0,0,0-59.83,129.1c-8.39,22.46-15.9,45.43-22.3,69a636,636,0,0,0-15.4,72.72c-1.71,11.69-2.83,23.7-3.52,35.92l-.15,2.29-.06,2.31-.11,4.63-.2,9.29q0,4.53.1,9.08l.07,4.56.18,4.58c.4,12.21,1.48,24.59,3.09,37a346.7,346.7,0,0,0,6.9,37.47,313.5,313.5,0,0,0,27.29,73.22,282,282,0,0,0,45.74,63.87,52.07,52.07,0,0,1,6.62-6.93,103.24,103.24,0,0,0,12.38,25l5,4.21c1.67,1.39,3.32,2.79,5,4.1a30.72,30.72,0,0,1,6.26,3.48A17.59,17.59,0,0,1,589,1287c-1.83-1.32-3.69-2.63-5.49-4l-5.4-4.24c-1.82-.78-3.68-1.52-5.65-2.2.76,1,1.52,2,2.32,3s1.62,1.9,2.44,2.85c1.65,1.87,3.33,3.75,5.09,5.54a141.78,141.78,0,0,0,11.1,10.14c3.85,3.23,7.92,6.14,12,9,2.07,1.41,4.19,2.71,6.31,4s4.26,2.58,6.44,3.75,4.35,2.35,6.54,3.49,4.42,2.14,6.64,3.17,4.44,2,6.68,2.93,4.46,1.85,6.7,2.71c4.49,1.65,8.94,3.32,13.4,4.69,2.23.71,4.43,1.42,6.64,2.08l6.59,1.86c17.45,4.85,34,7.92,48.41,11.29s26.82,7,36.36,12.77a250,250,0,0,0,53.22,23.91c9.4,3.07,19,5.54,28.75,7.72s19.62,3.85,29.57,5.13a457.8,457.8,0,0,0,60.2,3.74c20.11-.05,40.16-1.12,59.88-3s39.15-4.3,58.11-7,37.47-5.71,55.43-8.5c35.93-5.56,69.63-10.37,100.82-11,62.79-4.7,120.31-16.71,171.27-36.3a399.33,399.33,0,0,0,71.2-35.57c21.87-14,41.9-30.15,59.2-49.45A74.85,74.85,0,0,1,1491.26,1248.2Z"/><path class="o" d="M1452.62,1191.62c-5-2.43-9.47-4.52-13-6.08-12.27,17-29.45,32.39-49.33,45.64s-42.58,24.55-66.67,34a561.6,561.6,0,0,1-75.53,23.1c-25.89,6.1-52.14,10.69-77.79,14.26-4.42.81-11.71-1.58-20.19-4.75s-18.14-7.15-27.44-9.45c-22.37-.3-38.83,9.07-54.68,18.14s-30.95,17.71-49.12,15.24c-39.63-4.75-78.51-9.94-116.45-16.44s-75-14.24-110.38-24.48-69.17-23-99.7-39.63-57.59-37.24-79.58-62.44c-5.49-6.31-10.63-12.92-15.5-19.77a234.68,234.68,0,0,1-13.54-21.41c-2.15-3.67-4.05-7.49-6-11.28l-2.8-5.79c-1-1.92-1.77-3.93-2.67-5.88l-1.33-3-1.23-3c-.81-2-1.67-4-2.45-6l-2.29-6.13c-.79-2-1.43-4.14-2.16-6.21-1.48-4.13-2.67-8.4-4-12.62L557,1071.2c-.29-1.07-.61-2.14-.88-3.22l-.79-3.26c-2.22-8.66-3.91-17.54-5.51-26.48-.67-4.5-1.49-9-2-13.54l-.89-6.82-.64-6.68c-.21-2.23-.46-4.46-.63-6.7l-.36-6.76c-.11-2.26-.29-4.51-.34-6.78l-.1-6.82c-.44-36.45,4.85-73.93,14.13-110.8s22.67-73.27,38.91-108.43c3.94-8,12.09-3.83,21.53-.27s20.22,6.6,29.26-2.92c9.57-14,18.42-27.84,27.26-41.23,2.19-3.36,4.46-6.65,6.65-10l3.3-4.93,3.36-4.86,6.73-9.61q3.45-4.72,6.92-9.36c1.16-1.54,2.31-3.09,3.49-4.61l3.6-4.51c2.41-3,4.83-6,7.31-8.86,5.06-5.75,10.11-11.41,15.62-16.7,2.73-2.66,5.49-5.28,8.33-7.82s5.82-5,8.82-7.37c1.5-1.2,3-2.38,4.56-3.54s3.14-2.27,4.73-3.38q4.78-3.33,9.79-6.43c2.75-.52,4.73-3,6.31-6.78s2.77-9,4.05-14.77,2.51-12.42,4.26-19c.86-3.3,1.81-6.63,2.9-9.9a89.17,89.17,0,0,1,3.82-9.46c11.49-21.43,26.08-39.79,42.28-56.06s34-30.46,52.31-43.76,37-25.74,55.23-38.58,36.12-26.15,53.18-41.42c17.65-17.62,38.79-30,59.9-39.19,10.56-4.6,21.1-8.49,31.27-12s19.89-6.35,29-9.23q0-7.9-.26-15.7a179.16,179.16,0,0,0-32.08,4.64,291.8,291.8,0,0,0-33.63,10c-11.28,4.17-22.57,8.91-33.79,14.17-2.8,1.33-5.59,2.72-8.38,4.09l-4.19,2.06-4.16,2.18c-2.77,1.46-5.57,2.88-8.33,4.38l-8.27,4.59c-2.77,1.5-5.49,3.13-8.23,4.73s-5.49,3.18-8.2,4.85c-5.41,3.36-10.88,6.63-16.22,10.16-2.68,1.75-5.38,3.46-8.05,5.24l-8,5.4-4,2.71-3.94,2.79L916,390.35c-20.91,15.12-41.22,31.34-60.87,48.38s-38.61,35-56.85,53.62-35.74,38-52.43,57.86a944.15,944.15,0,0,0-89.4,125.89c-1.19,1.87-3.45,3.7-6.25,5.54s-6.05,3.73-9.36,5.61-6.63,3.77-9.38,5.7-4.94,3.87-6.08,5.8c-1.45,3.16-3,6.06-4.48,8.8s-3,5.28-4.62,7.65-3.23,4.57-4.87,6.67-3.31,4.07-5,5.94c-3.45,3.74-7.08,7.1-10.76,10.41s-7.62,6.47-11.55,9.88-8,7-12.16,11a169,169,0,0,0-12.48,13.93c-2.06,2.67-4.13,5.53-6.22,8.6q-1.56,2.31-3.13,4.78c-1,1.66-2,3.39-3,5.18-2,3.58-4,7.4-6,11.53s-3.8,8.6-5.67,13.35c-7.56,19.85-14.19,39.8-19.76,60.11a525.88,525.88,0,0,0-13.23,62.22,417.3,417.3,0,0,0-4.64,65.6c0,2.81.18,5.64.26,8.48s.19,5.69.34,8.53c.42,5.65.75,11.34,1.38,17.07s1.29,11.49,2,17.31c.9,5.8,1.73,11.65,2.89,17.53,2.57,13.93,10,29.26,18.56,43.51,1,1.8,2.19,3.54,3.26,5.3s2.15,3.51,3.25,5.22l3.3,5.1,1.59,2.52,1.62,2.48c2.14,3.28,4.1,6.54,6,9.66q1.43,2.36,2.69,4.7c.89,1.53,1.73,3.05,2.49,4.57a224.82,224.82,0,0,0,28,42.39c5.45,6.46,11.18,12.65,17.2,18.5,1.49,1.48,3.06,2.87,4.59,4.31s3.06,2.85,4.66,4.2l4.74,4.1,4.86,3.94c6.52,5.18,13.21,10.1,20.11,14.63,3.4,2.33,6.93,4.47,10.4,6.66,1.75,1.07,3.54,2.09,5.29,3.14l2.64,1.56,2.68,1.5,5.35,3,5.41,2.85c1.79,1,3.61,1.88,5.43,2.78l5.45,2.71c3.68,1.71,7.29,3.51,11,5.13l5.51,2.48,5.54,2.38c14.76,6.34,29.7,11.88,44.57,17.27s29.77,10.37,44.57,15.53c29.61,10.28,58.89,20.9,87.88,34.46,31.18,15.57,65.52,22.48,100.16,23.56s69.76-3.65,104-11.11,67.88-17.61,100.57-27.4,64.57-19.27,96.12-25.53c22.21-5.74,45.73-6.68,70.9-7.87s51.93-2.63,79.9-9.69c33-8.69,54.07-24.62,66.27-43.68a71.1,71.1,0,0,1-34.36-17.71,96.1,96.1,0,0,1-21.66-30.33C1439.61,1198.14,1446.37,1194.86,1452.62,1191.62Z"/><path class="p" d="M1431.2,1181.87q-13.08,4.8-26.64,9.12a264.26,264.26,0,0,1-41.06,23.15,311.73,311.73,0,0,1-45,16.4,315.93,315.93,0,0,1-91.51,11.94c-20.95,10.77-40.91,15.24-57.5,8.16-3.85-1.86-7.64-3.42-11.42-5-29.61,5.21-58.84,14.69-89.42,22.44a438.66,438.66,0,0,1-46.8,9.56,244.33,244.33,0,0,1-48.82,2.22c-8.58.2-15.06-5.23-20.34-10.7s-9.4-11-13.55-11c-16.68,3.4-33.43,6.42-50.34,9.68s-34,6.95-51.69,11.64c-13,1.73-24.59-6-35.13-14.8-5.29-4.42-10.36-9.15-15.45-13.17s-10.21-7.35-15.77-9q-17.3-8-33-17.11a322.34,322.34,0,0,1-29.57-19.12,263.78,263.78,0,0,1-25.45-21.06,223.19,223.19,0,0,1-20.94-22.84,202.12,202.12,0,0,1-16.45-24.54A196.33,196.33,0,0,1,633,1111.4l-.67-1.7-.6-1.75-1.22-3.48c-.8-2.33-1.49-4.73-2.26-7.06s-1.37-4.8-2-7.23l-.91-3.67c-.31-1.22-.63-2.43-.87-3.7a255.43,255.43,0,0,1-4.92-30.87c-1.26-6.4-4.25-14.42-7-22.86-.66-2.12-1.36-4.23-2-6.36s-1.13-4.27-1.63-6.35a57.2,57.2,0,0,1-1.1-5.75,51.51,51.51,0,0,1-.52-5.17c1.49-14.86,2.91-28.86,4.19-42.71s2.46-27.52,3.85-41.61,3.29-28.59,6-44c.73-3.85,1.36-7.76,2.21-11.72l2.65-12.09c1-4.09,2.09-8.25,3.21-12.5.54-2.12,1.17-4.26,1.82-6.41l2-6.53c7.06-21.32,17.16-41.21,29-60s25.35-36.64,39.59-54.18S731,678.86,746,660.85s30-36.76,44.68-57.34c5.18-12.1,20.39-21.39,35.56-30.16s30.53-17,36.5-28.47c23.59-34.79,50.11-61.53,77.67-84.23,13.8-11.35,27.9-21.68,42.22-31.42s28.86-18.87,43.53-27.67a66.05,66.05,0,0,0,9.21-6.72c2.92-2.39,5.74-5,8.57-7.62s5.67-5.05,8.63-7.33a55.67,55.67,0,0,1,9.26-5.77c20-13.94,40.8-17.67,55.42-19.18l-3.72-24.64c.05-4,.07-7.89.07-11.85-9.08,2.88-18.8,5.8-29,9.23s-20.71,7.36-31.27,12c-21.11,9.23-42.26,21.57-59.9,39.19-17.05,15.27-34.88,28.57-53.18,41.42s-37,25.29-55.23,38.58S849,486.32,832.77,502.6,802,537.22,790.49,558.65a89.17,89.17,0,0,0-3.82,9.46c-1.09,3.27-2,6.59-2.9,9.9-1.75,6.58-3,13.17-4.26,19s-2.48,11-4.05,14.77-3.56,6.26-6.31,6.78q-5,3.1-9.79,6.43-2.39,1.66-4.73,3.38c-1.54,1.16-3.05,2.34-4.56,3.54q-4.5,3.59-8.82,7.37c-2.84,2.54-5.61,5.16-8.33,7.82-5.5,5.29-10.56,11-15.62,16.7-2.48,2.9-4.9,5.87-7.31,8.86l-3.6,4.51c-1.18,1.52-2.33,3.06-3.49,4.61q-3.48,4.63-6.92,9.36l-6.73,9.61-3.36,4.86-3.3,4.93c-2.19,3.3-4.46,6.6-6.65,10-8.84,13.39-17.68,27.2-27.26,41.23-9,9.52-19.84,6.48-29.26,2.92s-17.59-7.68-21.53.27c-16.24,35.16-29.66,71.51-38.91,108.43s-14.57,74.36-14.13,110.8l.1,6.82c.06,2.27.24,4.52.34,6.78l.36,6.76c.17,2.24.43,4.47.63,6.7l.64,6.68.89,6.82c.53,4.56,1.35,9,2,13.54,1.59,8.94,3.29,17.82,5.51,26.48l.79,3.26c.27,1.08.59,2.15.88,3.22l1.76,6.43c1.34,4.22,2.52,8.49,4,12.62.73,2.07,1.36,4.18,2.16,6.21l2.29,6.13c.77,2,1.64,4,2.45,6l1.23,3,1.33,3c.9,2,1.71,4,2.67,5.88l2.8,5.79c2,3.79,3.89,7.61,6,11.28A234.68,234.68,0,0,0,597.26,1159c4.86,6.85,10,13.46,15.5,19.77,22,25.2,49.05,45.83,79.58,62.44s64.31,29.39,99.7,39.63,72.45,18,110.38,24.48,76.82,11.68,116.45,16.44c18.17,2.47,33.33-6.19,49.12-15.24s32.31-18.44,54.68-18.14c9.3,2.29,19,6.26,27.44,9.45s15.77,5.56,20.19,4.75c25.65-3.57,51.9-8.16,77.79-14.26a561.6,561.6,0,0,0,75.53-23.1c24.09-9.43,46.76-20.7,66.67-34s37.06-28.61,49.33-45.64C1434.41,1183.17,1431.2,1181.87,1431.2,1181.87Z"/><path class="m" d="M424.79,1026.12l.57,8.94.3,4.49.4,4.52.81,9.06,1,9.15.54,4.59.65,4.62c.44,3.08.85,6.16,1.33,9.26,1.05,6.21,2,12.43,3.32,18.72s2.64,12.59,4.08,18.94c.77,3.17,1.61,6.35,2.42,9.54s1.71,6.38,2.64,9.58c1.77,6.4,3.88,12.82,6,19.26l3.41,9.66c1.13,3.23,2.45,6.43,3.68,9.66.68,1.58,1.75,4.32,3.37,8l2.68,6.18c1,2.29,2.19,4.75,3.42,7.42a392.8,392.8,0,0,1-15.93-43.19c-4.48-14.57-8-29.21-11.08-43.7s-5.55-28.86-7.7-43S426.68,1039.77,424.79,1026.12Z"/><path class="m" d="M514.1,1275.47a379.19,379.19,0,0,0,31.56,34.18,398,398,0,0,0,34.4,29.37c11.48,8.74,22.73,16.33,33,22.75l7.53,4.57c2.44,1.49,4.82,2.8,7.11,4.12,4.58,2.66,8.85,4.91,12.71,7l-44.06-41.94-47.48-44.8s-1.61-.34-4.19-1-6.14-1.61-9.95-2.95a93,93,0,0,1-11.6-4.94A37.75,37.75,0,0,1,514.1,1275.47Z"/><path class="q" d="M1503.83,1249.44c-17.3,19.3-37.32,35.42-59.2,49.45a399.33,399.33,0,0,1-71.2,35.57c-51,19.59-108.48,31.6-171.27,36.3-31.2.59-64.89,5.4-100.82,11-18,2.8-36.46,5.78-55.43,8.5s-38.38,5.24-58.11,7-39.77,2.92-59.88,3a457.8,457.8,0,0,1-60.2-3.74c-9.95-1.28-19.83-3.05-29.57-5.13s-19.35-4.65-28.75-7.72a250,250,0,0,1-53.22-23.91c-9.54-5.81-21.92-9.41-36.36-12.77s-31-6.44-48.41-11.29l-6.59-1.86c-2.2-.66-4.41-1.37-6.64-2.08-4.46-1.38-8.91-3-13.4-4.69-2.24-.86-4.46-1.79-6.7-2.71s-4.47-1.88-6.68-2.93-4.43-2.09-6.64-3.17-4.37-2.3-6.54-3.49-4.32-2.44-6.44-3.75-4.24-2.61-6.31-4c-4.12-2.84-8.19-5.75-12-9a141.78,141.78,0,0,1-11.1-10.14c-1.76-1.79-3.43-3.67-5.09-5.54q-1.24-1.41-2.44-2.85c-.79-1-1.56-2-2.32-3-3.93-1.37-8.12-2.5-11.92-3.86a44.08,44.08,0,0,1-10-4.5c-2.66-1.77-4.52-3.82-4.94-6.39s.59-5.66,3.51-9.42a282,282,0,0,1-45.74-63.87,313.5,313.5,0,0,1-27.29-73.22,346.7,346.7,0,0,1-6.9-37.47c-1.61-12.45-2.68-24.83-3.09-37l-.18-4.58-.07-4.56q0-4.55-.1-9.08l.2-9.29.11-4.63.06-2.31.15-2.29c.7-12.22,1.81-24.23,3.52-35.92a636,636,0,0,1,15.4-72.72c6.4-23.58,13.92-46.54,22.3-69a962.93,962.93,0,0,1,59.83-129.1,981,981,0,0,1,76.83-117.87A834.72,834.72,0,0,1,737.65,475.3Q756,457.1,776,439.61c13.32-11.58,27.06-22.95,41.25-34s28.8-21.7,43.72-32.09,30.25-20.36,45.82-30a880.33,880.33,0,0,1,96.81-52.32c33.36-15.16,67.83-28.13,104-34a83.86,83.86,0,0,0-12.82-27.44,62.56,62.56,0,0,0-15.93-15.26c-1-.69-2.12-1.37-3.22-2s-2.18-1.2-3.3-1.76a66.23,66.23,0,0,0-7.08-3,60.46,60.46,0,0,0-7.64-2.21,77.26,77.26,0,0,0-8.09-1.32q-2.09-.23-4.26-.36c-1.43-.07-2.84-.08-4.29-.07q-4.34,0-8.92.53l-2.3.27-2.27.37q-2.28.4-4.62.91t-4.72,1.14c-1.6.41-3.2.87-4.77,1.41q-4.73,1.58-9.63,3.63c-13.27,4.24-26.13,8.86-38.38,14s-24.13,10.48-35.69,16.1a676.55,676.55,0,0,0-64.79,36.71,848.43,848.43,0,0,0-110.31,84.61,1024.79,1024.79,0,0,0-91.66,94.46A1133.9,1133.9,0,0,0,585,560.61l-44.24,86-11.07,21.22-2.8,5.27-2.76,5.3q-2.77,5.29-5.61,10.54l-5.59,10.55c-1.86,3.52-3.82,7-5.67,10.5-3.73,7-7.64,14-11.41,21,12.39-30.59,25.07-61.14,38-91.93-9.75,17.07-18.92,34.61-27.75,52.46s-17.14,36.16-25,54.92-15.19,38-21.81,57.85-12.67,40.28-17.85,61.43c.9-2.4,1.76-4.82,2.74-7.19-5.35,20.06-9.93,40.67-13.6,62.3-2.29,27.32-4.85,55.65-5.49,85.14-.07,3.69,0,7.42,0,11.13v8.36l.06,2.66.23,10.65.46,10.73c.74,14.34,1.93,28.82,4,43.31,1.78,10.09,4.06,22.93,7.85,37.53a408.14,408.14,0,0,0,15.33,47.78l1.47,3.08,2.52,4.93,3.39,6.56,4.33,7.9c6.3,11.34,14.9,25.59,24.87,40s21.19,29.09,31.6,42,19.87,24.23,25.51,33.14l6.45,5.85,5.43,4.65c3.21,2.76,5.64,4.68,7.07,5.76a480.1,480.1,0,0,0,65.94,45.56c11.24,6.5,22.55,12.41,33.87,18s22.66,10.59,34,15.26c45.31,18.68,90.19,31.32,134.15,40.38,13,.77,25.85,1.3,38.66,1.86s25.57,1.13,38.31,1.81c25.5,1.41,51,3.43,77,7.27,17.87,3.09,38.06,4.41,58.18,4.45s40.18-1.21,58-2.89c35.59-3.35,62.11-8.4,63.23-6.72q37.33-6.38,74.06-16.26c33.14-17,65.81-33.64,99.15-48.78,16.67-7.6,33.52-14.8,50.73-21.64q12.91-5.11,26.14-10t26.92-9.42a566.5,566.5,0,0,0,50.27-37.2c15.07-12.57,24.56-25.12,29.35-36.56s4.85-21.72,1.62-30.27A77,77,0,0,1,1503.83,1249.44Z"/></g></g></g><g class="a"><g class="b"><g class="b"><path class="r" d="M199.91,3214.63q-36.23-29.91-69-62.24l-16-16.4c-2.72-2.68-5.22-5.54-7.79-8.34l-7.68-8.41c-2.54-2.81-5.16-5.56-7.64-8.41l-7.32-8.63-7.33-8.6c-1.21-1.44-2.46-2.84-3.65-4.3L70,3084.88,56,3067.29l-6.52-8.73-6.34-8.81q-12.51-17.7-23.53-36a493.3,493.3,0,0,1-36.9-74c2.8,31.16,9.53,63.35,20,90.77,1.83,5.23,4,10.3,6.28,15.36,1.17,2.51,2.4,5,3.65,7.47.63,1.24,1.25,2.47,1.9,3.7l2,3.64c1.37,2.41,2.73,4.84,4.19,7.2s3,4.71,4.48,7,3.14,4.61,4.74,6.89,3.22,4.54,5,6.77a329.65,329.65,0,0,0,47.65,49.56q6.62,5.62,13.37,11.1c4.63,3.54,9.33,7,14,10.43l7.07,5.13,3.55,2.54,3.67,2.43,14.71,9.6c2.46,1.58,4.89,3.19,7.38,4.73l7.58,4.51,15.12,9c2.49,1.52,5.1,2.9,7.67,4.32l7.71,4.25,7.68,4.25,3.83,2.13C197.31,3213.26,198.59,3214,199.91,3214.63Z"/><path class="r" d="M192,3215l-15.42-8.57-7.75-4.29-7.58-4.49-15.21-9c-2.57-1.48-5-3.08-7.49-4.67l-7.41-4.78c-4.92-3.21-9.92-6.37-14.75-9.7s-9.53-6.81-14.26-10.27L95.1,3154l-1.77-1.31-1.7-1.37-3.4-2.75q-6.78-5.52-13.45-11.18c-4.52-3.71-8.67-7.74-12.86-11.74s-8.3-8.08-12.35-12.2-7.71-8.56-11.45-12.92q-2.8-3.28-5.53-6.6c-1.82-2.22-3.66-4.44-5.3-6.71A237.71,237.71,0,0,1,9,3059a211,211,0,0,1-13.7-30.47C-15,3000.8-21.53,2968.36-24,2936.94a363.06,363.06,0,0,1-17.13-59.54l-.7-3.66c-.25-1.22-.47-2.44-.64-3.65l-1.16-7.26c-.58-4.81-1.29-9.62-1.64-14.36a241.8,241.8,0,0,1-1.06-28,236.08,236.08,0,0,1,2-26.86c.26-2.2.7-4.35,1-6.52.18-1.08.31-2.18.53-3.25l.66-3.21c.8-4.27,1.8-8.56,2.92-12.88a294.56,294.56,0,0,1,20-53.29c5.22-16.85,13.65-33.7,24-50.11C10,2656.15,15.71,2648,21.78,2640S34.26,2624,41,2616c14.21-20.31,29.55-41.37,45.41-63.7,4-5.59,8-11.24,12-17.06s8-11.54,12-17.4l11.9-17.65c3.95-5.92,7.83-12,11.75-17.93,15.55-24.09,30.75-48.79,45.25-74.39s28.27-52.13,41.16-79.52l9.47-20.73c3-7,6-14.09,9-21.15l2.24-5.3,2.12-5.39,4.21-10.81,4.2-10.83,3.92-11,3.9-11c.64-1.85,1.31-3.67,1.93-5.54l1.79-5.63c2.38-7.51,4.8-15,7.09-22.56l6.41-23c1.11-3.81,2-7.72,3-11.61l2.81-11.69,1.39-5.85c.47-1.95.93-3.89,1.34-5.91l2.51-12c1.54-8,3.08-16.09,4.36-24.2,2.63-16.2,4.81-32.52,6.31-49s2.48-33,2.88-49.69.08-33.46-.79-50.32c-.26-4.22-.42-8.43-.78-12.66l-1-12.68-1.32-12.71c-.42-4.24-1-8.49-1.57-12.73-2.27-17-5.18-34-8.91-51A572.64,572.64,0,0,0,254.72,1752a540.78,540.78,0,0,0-23.87-49.16c-4.51-8-9.09-16-14-23.85-1.22-2-2.43-3.94-3.68-5.89l-3.84-5.81c-2.57-3.86-5.12-7.79-7.83-11.45a589.55,589.55,0,0,0-69.35-81.3,845.92,845.92,0,0,0-74.58-64.75c-24.91-19.37-49.54-36.88-73.28-53.42l-34.9-24.13-16.81-11.66L-84,1409q-33-23.3-65.58-47.62c-10.2-7.6-43.25-29.78-76.87-51.55-16.84-10.84-33.82-21.57-48.43-29.92-7.3-4.18-14-7.8-19.77-10.5s-10.63-4.58-14.26-5.26c-6.9-3.43-13.76-6.92-20.63-10.42s-13.72-7-20.58-10.6l-4.43,5.07c14.74,13.38,29.26,26.86,44.56,40.11a490.78,490.78,0,0,0,49.7,38.12c20.15,16.21,44.91,26.3,65.37,41.91,23,17.56,45.37,34.67,67.8,51.36,5.59,4.19,11.22,8.31,16.85,12.44s11.27,8.21,16.94,12.27l8.54,6.1,8.69,6.11c5.75,4,11.76,8.19,17.73,12.29,24,16.52,49.54,33.42,77,52.05,6.86,4.71,13.8,9.32,20.9,14.33l10.72,7.39,10.91,7.77c7.34,5.07,14.78,10.72,22.37,16.21l2.85,2.07,2.85,2.19,5.75,4.39,5.8,4.42c1.94,1.49,3.9,2.91,5.85,4.52,19.81,13.58,38.86,41.18,54.91,70.72l1.53,2.73c.51.91,1,1.88,1.46,2.81l2.89,5.63,5.73,11.11,1.42,2.73,1.36,2.79,2.71,5.52,2.72,5.4,2.6,5.34c7.07,14,13.55,26.83,20.92,37a405.27,405.27,0,0,1,29.56,66,439.32,439.32,0,0,1,17.09,66.48,499.66,499.66,0,0,1,7.08,65.2,582.9,582.9,0,0,1-.85,63.21c-2.76,41.47-9.38,81.5-18.26,120.92l-3.45,14.77-3.72,14.51-1.83,7.27c-.62,2.42-1.16,4.87-1.87,7.26l-4,14.44c-2.49,9.71-5.46,19.23-8.17,28.9l-2,7.26-2.2,7.19q-2.18,7.21-4.3,14.5c-9.24,31.75-18.78,60.36-28.62,87.28l-7.48,19.88-7.76,19.25-1.94,4.77c-.65,1.59-1.34,3.13-2,4.7l-4.05,9.34-4.08,9.31c-1.35,3.11-2.81,6.11-4.23,9.17-2.86,6.08-5.72,12.18-8.69,18.22s-6.08,12-9.2,18l-2.36,4.51-2.44,4.45-5,8.93-5.07,9c-1.73,3-3.51,5.92-5.3,8.9l-5.45,8.95c-1.84,3-3.7,6-5.64,9q-5.77,8.93-11.9,18T74,2523.66c-4.41,6.12-9,12.12-13.63,18.19-7.63,11.23-15.56,26-23.13,40.4s-14.78,28.53-21.42,38.85c-23.18,32.57-43.18,64-57.73,94.74a311.82,311.82,0,0,0-17.57,45.7c-1.16,3.79-2.08,7.56-3.06,11.35l-1.27,5.68-.66,2.84-.52,2.88-1.09,5.76c-.32,1.93-.56,3.89-.87,5.83-.67,3.88-1,7.85-1.45,11.8-.13,1-.21,2-.27,3l-.21,3c-.12,2-.36,4-.41,6-.11,4-.4,8.09-.33,12.19,0,2,0,4.1,0,6.16l.19,6.21.08,3.11.21,3.13.38,6.28a367.4,367.4,0,0,0,7.92,51.31,466.26,466.26,0,0,0,15.47,52.3c6.35,17.46,13.73,34.91,22,52.22a81.11,81.11,0,0,1,5.94,11.92c.87,2.07,1.68,4.2,2.43,6.36.38,1.08.74,2.18,1.09,3.28s.74,2.19,1.09,3.3c1.41,4.44,2.65,9,4,13.62l1.93,7,2.07,6.94a147.71,147.71,0,0,0,10.51,26.7,80.74,80.74,0,0,0,7.64,11.73,66.7,66.7,0,0,0,10.11,9.91q4.11,2.66,8.13,5.35l4,2.7,2,1.35,2,1.3q8.17,5.22,16.05,10.57l7.83,5.37,8,5.2q7.92,5.23,15.63,10.55L89,3157l2,1.28,4,2.56,7.85,5.15,7.78,5.18,3.86,2.6,4,2.5,15.75,10,3.91,2.51c1.3.84,2.6,1.68,3.95,2.46l8,4.78c4.75,3.87,6,12,8.62,21.21,2.75,9,6.88,19.12,16.85,26.8q7.07,5.77,14.26,11.25,3.59,2.75,7.2,5.43c1.21.89,2.4,1.8,3.63,2.66l3.71,2.53q7.43,5,14.91,9.86c2.5,1.6,5,3.21,7.5,4.75l7.66,4.47q7.66,4.42,15.34,8.68c1.28.71,2.55,1.42,3.84,2.11l3.91,2,7.81,4,15.57,7.74,15.75,7.18c41.95,18.93,84,34.37,124.25,52.62-3.63-4-7.31-7.92-11.05-11.71-39.45-20.61-77.57-42.74-114-66.48A1107.57,1107.57,0,0,1,192,3215Z"/><path class="r" d="M668.44,3461.38c-7.43-.29-14.67-.82-21.79-1.43s-14.09-1.33-20.82-2.3c9.6,4.93,19.56,9.65,29.75,14.3s20.76,8.93,31.49,13.19,21.77,8.15,33,11.93,22.57,7.32,34.11,10.59a835.62,835.62,0,0,0,142.24,27.52C818.46,3511.59,742.26,3487.74,668.44,3461.38Z"/><path class="r" d="M533.26,3414.67c.72.69,1.41,1.42,2.12,2.11-43.14-18.39-85.21-38.06-125.64-59.18,3.74,3.78,7.43,7.66,11.05,11.71l4.47,2.07,4.5,2q4.49,2.05,8.94,4.19t8.86,4.37l8.81,4.51q8.82,4.5,17.47,9.46c2.89,1.64,5.73,3.39,8.62,5.07s5.75,3.42,8.61,5.21c6,3.85,12.22,7.74,18.56,11.5,10,1.89,20.62,3.4,31.46,4.7,1.4,1.36,2.82,2.64,4.19,4,8.81,8.39,20.31,15.15,34,20.13q5.13,1.9,10.62,3.54c3.66,1.1,7.43,2.13,11.34,3,7.8,1.79,16,3.28,24.56,4.52-6.55-3.43-13.1-6.93-19.39-10.44-6-3.19-11.94-6.33-18-9.29s-12.11-5.73-18.23-8.38-12.21-5.3-18.39-7.76q-4.63-1.84-9.3-3.59Z"/><path class="s" d="M428.54,3585.63q-7.93-5.28-15.63-9.77c-5.13-3-10.17-5.94-15.17-8.58s-9.93-5.09-14.83-7.36-9.72-4.52-14.54-6.53c-19.25-8-38-14.37-56.88-20.59-9.4-3.25-18.84-6.47-28.38-9.92s-19.05-7.5-28.77-11.86a290.21,290.21,0,0,1-59.42-36.1c-7.51-5.53-14.89-11.28-22.35-16.77s-15-10.79-22.33-16.3-14.88-10.7-22.32-16-14.79-10.69-22.22-15.9l-5.58-3.89-5.52-4-11.06-7.94-11.11-7.83c-1.87-1.27-3.68-2.64-5.51-4l-5.49-4-22-16L17.62,3346a1141.76,1141.76,0,0,0,93.94,79.17l12.1,9.19,12.27,8.82,12.29,8.78c2.06,1.45,4.09,2.95,6.16,4.35l6.23,4.2c8.32,5.57,16.6,11.23,25,16.67l25.29,15.93q50.89,31.1,103.76,57.08c8.83,4.25,17.67,8.52,26.53,12.68q13.31,6,26.68,11.92c4.45,2,8.93,3.84,13.41,5.71l13.45,5.57c4.49,1.82,9,3.75,13.49,5.46l13.54,5.22C420.87,3592.55,422.19,3588.57,428.54,3585.63Z"/><path class="t" d="M830.38,3610.58c-28.81,4.13-63.69,1-108.82-15.33-38-14-71.62-31.3-103.45-47.72-15.94-8.14-31.39-16.3-46.86-23.54-7.71-3.72-15.41-7.24-23.18-10.49l-5.83-2.39q-2.91-1.21-5.83-2.37-5.85-2.31-11.77-4.4C481,3487,435,3471.62,388.16,3454.92s-94.49-35-140.63-57.2l-8.65-4.17c-2.88-1.4-5.77-2.78-8.59-4.28q-8.51-4.44-17-9l-8.46-4.54c-2.81-1.53-5.56-3.18-8.33-4.77q-8.3-4.83-16.53-9.75c-5.52-3.22-10.84-6.77-16.19-10.25s-10.64-7-15.9-10.62-10.31-7.47-15.4-11.26l-7.59-5.74c-2.5-1.94-5.05-3.81-7.47-5.87-39.33-31.84-73.49-69.29-97.86-111.79q-4.36-7.27-8.88-14.41c-2.89-4.87-5.8-9.74-8.78-14.54s-6-9.57-9.08-14.3q-4.39-7.3-8.92-14.49c-3-4.8-6.11-9.54-9.19-14.3s-6.09-9.59-9.07-14.45c-6.09-9.61-12-19.39-18-29.13l-4.43-7.37-2.24-3.68-2.19-3.71-4.42-7.41-4.34-7.48-2.19-3.74-2.13-3.77-4.3-7.54-4.21-7.61-2.12-3.81-2.06-3.84c-5.59-10.2-10.86-20.63-16.09-31.13-2.52-5.29-5.15-10.56-7.55-15.93s-4.84-10.75-7.22-16.16c-1.2-2.71-2.27-5.46-3.42-8.19s-2.29-5.47-3.34-8.25l-3.24-8.31-3-8.4c-.5-1.4-1-2.8-1.52-4.21l-1.42-4.25c-.93-2.84-1.94-5.66-2.82-8.52l-2.63-8.6L-140,2906l-.6-2.17-1.2-4.34c-1.69-5.78-3-11.65-4.49-17.51l-1.9-8.86c-.31-1.48-.66-3-.93-4.45l-.81-4.47-.81-4.48c-.28-1.49-.55-3-.75-4.49l-1.33-9c-.44-3-.71-6-1.07-9.07l-.51-4.55-.36-4.56a318,318,0,0,1,2.3-73.61,326.14,326.14,0,0,1,19.64-71.76c3.68-9.26,7.1-19.52,10.69-30.29s7.31-22,11.34-33.2c8-22.39,17.39-44.45,28.3-61.41,18.22-28.23,36.83-54.93,54.64-81.17s34.7-52.11,50.58-78.16c31.8-52,59.48-104.56,81.64-159.22,4.45-10.57,8.38-20,12.61-28.41,2.16-4.19,4-8.24,6.09-12.06s4.05-7.46,6.11-11l1.54-2.6,1.46-2.58q1.47-2.55,2.95-5c2-3.3,4-6.5,6-9.65l3-4.7,2.85-4.71,5.72-9.44,2.86-4.8,1.42-2.44c.46-.82.89-1.65,1.34-2.49,1.77-3.34,3.52-6.78,5.24-10.35s3.45-7.27,5.08-11.17,3.09-8,4.51-12.35a196.17,196.17,0,0,0,7-29.2,234.58,234.58,0,0,0,3-36.77c.21-3.4,1.51-7.58,3.05-12.22s3.69-9.71,5.6-14.86c1-2.57,2-5.15,2.86-7.69s1.67-5,2.37-7.45a44.23,44.23,0,0,0,2.15-12.72,562.56,562.56,0,0,0-18-120.47,491.49,491.49,0,0,0-19.58-58.48c-1.86-4.81-4-9.51-6.07-14.26-1-2.38-2.17-4.7-3.25-7l-3.32-7c-4.64-9.27-9.42-18.49-14.7-27.45l-3.94-6.73-4.14-6.62c-2.71-4.45-5.67-8.74-8.57-13.07-1.42-2.19-3-4.28-4.5-6.37l-4.6-6.3-4.6-6.3c-1.58-2.05-3.23-4-4.85-6.08a502.42,502.42,0,0,0-41.29-46c-14.46-14.56-29.72-28-45.19-41S-18.71,1586-34.63,1574c-31.87-24-64.16-46.45-95.37-69.31s-61.88-46.33-91.9-70.48c-60.09-48.22-117.64-99-172.4-151.44-12.74,10.13-23,21.81-30.19,34.55L-303,1420.46c40.69,34.4,81.73,68.49,123.1,101.63s83.48,64.72,122.4,97.16c19.47,16.22,38.16,32.69,55.58,49.67a573.34,573.34,0,0,1,48,52.54l1.81,2.3,1.7,2.37,3.4,4.74,3.41,4.72c1.13,1.57,2.31,3.12,3.33,4.76l6.35,9.66c1,1.62,2.17,3.18,3.14,4.83l3,4.91a397,397,0,0,1,21.34,40.61,435.63,435.63,0,0,1,28.77,87.29c13.14,60.25,14.64,123.54,5.89,185.47-.54,3.87-1.18,7.73-1.77,11.6s-1.35,7.71-2,11.56-1.51,7.68-2.26,11.52-1.74,7.68-2.61,11.52l-2.63,11.52c-1,3.83-2,7.63-3,11.45l-3.07,11.44c-1.12,3.79-2.31,7.57-3.46,11.36a722.93,722.93,0,0,1-34,89.1c-26.61,58.18-60.43,113.54-98.79,166.09l-6.72,9.29-6.86,9.28-6.89,9.32-7,9.38-28.8,38.32c-19.41,26.09-39.11,53.32-57.39,82.76-4.58,7.33-9,14.86-13.4,22.47s-8.58,15.41-12.62,23.37a474.37,474.37,0,0,0-22,49.5,392.12,392.12,0,0,0-15.93,53,356.93,356.93,0,0,0-7.84,55.14,37,37,0,0,1,9.61-.23q-1.75,4.45-3.32,9c-1,3.06-1.84,6.15-2.69,9.28a175.87,175.87,0,0,0-3.89,19.16c.1,3.11.36,6.18.54,9.26s.35,6.15.71,9.2a60.27,60.27,0,0,1,2.13,9.85,36.78,36.78,0,0,1,.13,9.44l-.69-4.77c-.23-1.6-.44-3.2-.59-4.82l-1-9.7c-.79-2.63-1.56-5.27-2.49-8l-.44,5.28c-.1,1.76-.15,3.52-.21,5.28-.09,3.53-.19,7.08-.13,10.62.21,7.07.54,14.19,1.41,21.22.69,7.08,2,14,3.23,21,1.5,6.89,3,13.81,5,20.52l1.45,5c.48,1.68,1,3.35,1.55,5q1.64,5,3.34,9.85c1.14,3.26,2.43,6.45,3.66,9.64l1.88,4.77c.64,1.58,1.33,3.13,2,4.68,1.35,3.11,2.7,6.19,4.07,9.25l4.32,9c1.42,3,2.93,5.89,4.45,8.78s3,5.75,4.54,8.56c12.36,22.46,25.46,42.45,37,60.3s21.3,33.69,27.13,48.32a384.35,384.35,0,0,0,17.46,37.32c6.61,12.24,13.9,24.32,21.85,36.13,4,5.79,8.14,11.51,12.35,17.26s8.42,11.54,13,17,9.16,11.05,13.84,16.55l3.52,4.12c1.19,1.36,2.44,2.66,3.66,4l7.41,7.94,7.5,7.91,3.78,3.94,1.9,2,2,1.9q7.85,7.59,15.83,15.1c2.67,2.5,5.31,5,8,7.47l8.28,7.19Q40.41,3290,48.8,3297c22.78,18.33,46.21,35.88,70.38,51.7,24,16.17,48.6,30.65,72.8,44.68l18.26,10.09c6.06,3.34,12,6.76,18.1,9.88,12.09,6.35,23.91,12.86,35.78,18.81,47.16,24.42,91.86,46.38,130.85,68.91a1127,1127,0,0,0,119.64,54.56,1050,1050,0,0,0,115.15,37.18A897.34,897.34,0,0,0,739,3614.24a760.15,760.15,0,0,0,103.08,6.68A139.55,139.55,0,0,1,830.38,3610.58Z"/><path class="u" d="M835.84,3541.8c-4.09-5.64-7.86-10.56-11-14.39a469.39,469.39,0,0,1-48.48,1c-16.65-.56-33.84-1.77-51.34-3.85a821.94,821.94,0,0,1-108.39-20.47A1087.54,1087.54,0,0,1,506,3469c-36.56-13.68-72.41-29.18-106.6-45.62-6-2.73-13.49-10.16-22-19-4.24-4.47-8.65-9.46-13.31-14.34-2.33-2.45-4.7-4.89-7.13-7.28s-4.92-4.69-7.38-7a152.61,152.61,0,0,0-20.24-11.28q-2.51-1.16-5-2.21c-1.65-.73-3.29-1.44-4.93-2.11-3.28-1.34-6.54-2.55-9.8-3.66s-6.5-2.11-9.73-3-6.47-1.74-9.62-2.63c-6.33-1.72-12.62-3.2-18.84-4.66l-9.28-2.17c-3.06-.75-6.06-1.59-9.05-2.43-6-1.69-11.88-3.52-17.66-5.69a108.57,108.57,0,0,1-32.42-19l-16.31-14.31-8.15-7.1c-2.69-2.39-5.32-4.86-8-7.28l-15.95-14.47L139,3259l-7.79-7.34c-2.56-2.48-5.06-5-7.59-7.53l-15.17-15-14.75-15.31-7.38-7.61-7.16-7.81-14.31-15.54L51,3167l-6.93-7.9-6.67-8.11-13.35-16.15-12.81-16.52-6.43-8.21-6.16-8.3q-12.2-16.65-23.51-33.78c-7.55-11.4-14.67-23-21.49-34.76s-13.3-23.61-19.26-35.66a528.61,528.61,0,0,1-30.37-73.73c-4-12.51-7.53-25.11-10.39-37.78a386.43,386.43,0,0,1-6.5-38.11,321.66,321.66,0,0,1-2.36-38.15,316.83,316.83,0,0,1,2.24-37.86c3-25,9.43-50.06,18.43-74.88s20.67-49.42,33.82-73.84,27.86-48.67,43.13-73.09,31.14-49,46.56-74.41,30.32-51,44.49-77.15l5.27-9.84c1.75-3.28,3.54-6.54,5.22-9.87L94.16,2359l9.82-20.11c3.23-6.73,6.3-13.55,9.45-20.31,12.35-27.21,23.68-54.94,33.67-83.21A814.6,814.6,0,0,0,172.62,2149a19.2,19.2,0,0,1,3.43-7.38,10,10,0,0,1,5.08-3.21c3.88-1.1,8.65-.46,13.74-.2s10.5.12,15.7-2.66a24.65,24.65,0,0,0,7.56-6.46,47.57,47.57,0,0,0,6.5-12.38c3.59-14.37,6.47-28.7,8.76-43s3.84-28.43,5-42.5a672.38,672.38,0,0,0,1-83.28c-.62-13.7-1.68-27.33-2.88-40.93s-2.85-27.16-4.61-40.76c-3.64-27.2-8-54.54-13.42-82.72.47-8.83-9.22-22.61-23.17-38.06-3.42-3.89-7.26-7.82-11.18-11.86s-8.1-8.1-12.22-12.27c-2-2.09-4.23-4.14-6.35-6.22s-4.25-4.19-6.34-6.31-4.3-4.19-6.4-6.31-4.14-4.3-6.25-6.36q-5.55-5.88-10.93-11.74l-2.68-2.93-2.77-2.81-5.48-5.62c-7.15-7.64-14.57-14.65-21.7-21.9-1.76-1.84-3.64-3.49-5.44-5.25l-5.43-5.2-5.37-5.22c-1.78-1.75-3.63-3.36-5.42-5q-5.42-5-10.76-10.08l-10.78-9.77-5.34-4.9-5.38-4.74-10.68-9.53-10.69-9.26-5.32-4.66L17.08,1573l-10.62-9.08L-4.15,1555l-5.29-4.45-5.29-4.34-10.57-8.69c-14-11.38-28.1-22.67-42-33.48-7-5.48-13.9-10.77-20.92-16.1l-10.4-7.87-10.42-7.78c-27.76-20.61-56.36-40.63-87.2-59.19-34.13-18.86-65-42.33-94.89-66.81s-59-49.91-90.28-73c-4.51,3-8.78,6.13-12.86,9.42,54.76,52.48,112.31,103.22,172.4,151.44q45,36.22,91.9,70.48C-98.79,1527.56-66.5,1550-34.63,1574c15.91,12,31.8,24.28,47.26,37.34s30.73,26.49,45.19,41a502.42,502.42,0,0,1,41.29,46c1.61,2,3.26,4,4.85,6.08l4.6,6.3,4.6,6.3c1.53,2.1,3.08,4.18,4.5,6.37,2.9,4.33,5.86,8.63,8.57,13.07l4.14,6.62,3.94,6.73c5.28,9,10.06,18.18,14.7,27.45l3.32,7c1.08,2.35,2.25,4.67,3.25,7,2,4.75,4.21,9.45,6.07,14.26a491.49,491.49,0,0,1,19.58,58.48,562.56,562.56,0,0,1,18,120.47,44.23,44.23,0,0,1-2.15,12.72c-.69,2.4-1.5,4.9-2.37,7.45s-1.89,5.12-2.86,7.69c-1.91,5.14-4,10.22-5.6,14.86s-2.85,8.82-3.05,12.22c-.13,21.18-3.47,37.72-8.29,52.1s-11.23,26.66-18.4,39.58l-5.38,9.9c-1.93,3.35-3.88,6.79-5.83,10.37s-3.92,7.3-5.9,11.2-4.23,7.91-6.36,12.18q-1.59,3.2-3.19,6.59l-1.61,3.43-1.72,3.5c-2.29,4.73-4.59,9.73-6.89,15.06-.59,1.33-1.13,2.69-1.75,4l-1.86,4.14q-1.86,4.2-3.74,8.67c-1.25,3-2.49,6.06-3.77,9.22s-2.71,6.38-4.07,9.72c-22.6,55.64-50.16,107.68-81.68,159.28C7,2424.35-9.79,2450-27.51,2476.18s-36.43,53-54.93,81.6c-10.91,17-20.27,39-28.3,61.41-4,11.19-7.75,22.45-11.34,33.2s-7,21-10.69,30.29a326.14,326.14,0,0,0-19.64,71.76,318,318,0,0,0-2.3,73.61l.36,4.56.51,4.55c.36,3,.63,6.06,1.07,9.07l1.33,9c.2,1.5.47,3,.75,4.49l.81,4.48.81,4.47c.26,1.49.62,3,.93,4.45l1.9,8.86c1.48,5.86,2.8,11.73,4.49,17.51l1.2,4.34.6,2.17.66,2.15,2.63,8.6c.88,2.86,1.89,5.68,2.82,8.52l1.42,4.25c.48,1.41,1,2.81,1.52,4.21l3,8.4,3.24,8.31c1,2.78,2.2,5.51,3.34,8.25s2.22,5.49,3.42,8.19c2.39,5.41,4.7,10.84,7.22,16.16s5,10.64,7.55,15.93c5.23,10.5,10.49,20.93,16.09,31.13l2.06,3.84,2.12,3.81,4.21,7.61,4.3,7.54,2.13,3.77,2.19,3.74,4.34,7.48,4.42,7.41,2.19,3.71,2.24,3.68,4.43,7.37c6,9.74,11.94,19.51,18,29.13,3,4.86,6.09,9.61,9.07,14.45s6.18,9.5,9.19,14.3,6,9.62,8.92,14.49q4.61,7.09,9.08,14.3c3,4.8,5.89,9.67,8.78,14.54s6,9.56,8.88,14.41c24.37,42.51,58.53,80,97.86,111.79,2.42,2.06,5,3.92,7.47,5.87l7.59,5.74c5.09,3.79,10.18,7.62,15.4,11.26s10.56,7.12,15.9,10.62,10.66,7,16.19,10.25,11,6.53,16.53,9.75c2.77,1.59,5.52,3.24,8.33,4.77l8.46,4.54q8.48,4.52,17,9c2.82,1.51,5.71,2.88,8.59,4.28l8.65,4.17c46.14,22.2,93.81,40.42,140.63,57.2S481,3487,524.63,3504.35q5.92,2.08,11.77,4.4,2.92,1.16,5.83,2.37l5.83,2.39c7.76,3.25,15.47,6.76,23.18,10.49,15.47,7.25,30.92,15.41,46.86,23.54,31.83,16.42,65.43,33.73,103.45,47.72,45.13,16.28,80,19.46,108.82,15.33-24.29-24.57-30.21-51.91-24-76.19Z"/><path class="v" d="M890,3611.4a231.76,231.76,0,0,0-18.45-48.74c-6.82-13.23-13.67-23.22-18.72-29.15-10.08-11.85-13.07-7.56,6.3,19.1l-29.55-7.31a72,72,0,0,0,.74,38c3.8,12.92,11.41,25.86,23.6,38.11A152.89,152.89,0,0,0,890,3611.4Z"/><path class="v" d="M817.21,3518.29,796,3511.54c-7.05-2.26-14.12-4.47-21.15-6.79a746,746,0,0,1-140.39-31.37c-45.28-14.84-87.94-33.88-124.79-55.65-8.41-1.68-16.44-3.68-24.06-5.9a160,160,0,0,1-21.36-7.8,115.4,115.4,0,0,1-18.11-9.89,82,82,0,0,1-14.23-12.32c-3.62-4.35-7.4-8.35-11.07-12.5-40.28-18.25-82.31-33.69-124.25-52.62l-15.75-7.18-15.57-7.74-7.81-4-3.91-2c-1.29-.69-2.56-1.4-3.84-2.11q-7.67-4.26-15.34-8.68l-7.66-4.47c-2.52-1.54-5-3.15-7.5-4.75q-7.48-4.82-14.91-9.86l-3.71-2.53c-1.23-.86-2.42-1.77-3.63-2.66q-3.61-2.68-7.2-5.43-7.18-5.5-14.26-11.25c-10-7.69-14.1-17.78-16.85-26.8-2.63-9.18-3.87-17.34-8.62-21.21l-8-4.78c-1.35-.78-2.65-1.62-3.95-2.46l-3.91-2.51-15.75-10-4-2.5-3.86-2.6-7.78-5.18-7.85-5.15-4-2.56L89,3157l-1.93-1.33q-7.72-5.32-15.63-10.55l-8-5.2-7.83-5.37q-7.89-5.35-16.05-10.57l-2-1.3-2-1.35-4-2.7q-4-2.69-8.13-5.35a66.7,66.7,0,0,1-10.11-9.91,80.74,80.74,0,0,1-7.64-11.73A147.71,147.71,0,0,1-4.87,3065L-6.94,3058l-1.93-7c-1.34-4.59-2.57-9.18-4-13.62q-.53-1.66-1.09-3.3c-.36-1.1-.72-2.19-1.09-3.28-.75-2.16-1.56-4.29-2.43-6.36a81.11,81.11,0,0,0-5.94-11.92c-8.27-17.31-15.65-34.76-22-52.22a466.26,466.26,0,0,1-15.47-52.3,367.4,367.4,0,0,1-7.92-51.31l-.38-6.28-.21-3.13-.08-3.11-.19-6.21c0-2.06,0-4.11,0-6.16-.07-4.11.22-8.15.33-12.19,0-2,.29-4,.41-6l.21-3c.06-1,.14-2,.27-3,.48-4,.78-7.92,1.45-11.8.3-1.95.55-3.9.87-5.83l1.09-5.76.52-2.88.66-2.84,1.27-5.68c1-3.79,1.91-7.56,3.06-11.35a311.82,311.82,0,0,1,17.57-45.7c14.55-30.77,34.55-62.17,57.73-94.74,6.64-10.32,13.83-24.42,21.42-38.85s15.5-29.18,23.13-40.4c4.67-6.07,9.21-12.07,13.63-18.19s8.68-12.15,12.82-18.14,8-12.07,11.9-18c1.94-3,3.8-6,5.64-9l5.45-8.95c1.79-3,3.57-5.93,5.3-8.9l5.07-9,5-8.93,2.44-4.45,2.36-4.51q4.69-9,9.2-18c3-6,5.83-12.15,8.69-18.22,1.41-3.06,2.88-6.06,4.23-9.17l4.08-9.31,4.05-9.34c.67-1.57,1.36-3.11,2-4.7l1.94-4.77,7.76-19.25,7.48-19.88c9.84-26.92,19.38-55.53,28.62-87.28q2.11-7.29,4.3-14.5l2.2-7.19,2-7.26c2.71-9.68,5.68-19.19,8.17-28.9l4-14.44c.71-2.39,1.25-4.84,1.87-7.26l1.83-7.27,3.72-14.51,3.45-14.77c8.88-39.43,15.5-79.46,18.26-120.92a582.9,582.9,0,0,0,.85-63.21,499.66,499.66,0,0,0-7.08-65.2A439.32,439.32,0,0,0,234.45,1802a405.27,405.27,0,0,0-29.56-66c-7.38-10.14-13.85-23-20.92-37l-2.6-5.34-2.72-5.4-2.71-5.52-1.36-2.79-1.42-2.73-5.73-11.11-2.89-5.63c-.49-.93-1-1.9-1.46-2.81l-1.53-2.73c-16-29.54-35.09-57.14-54.91-70.72-1.94-1.6-3.9-3-5.85-4.52l-5.8-4.42-5.75-4.39-2.85-2.19-2.85-2.07c-7.59-5.49-15-11.13-22.37-16.21l-10.91-7.77-10.72-7.39c-7.1-5-14-9.61-20.9-14.33-27.41-18.63-52.94-35.54-77-52.05-6-4.1-12-8.25-17.73-12.29l-8.69-6.11-8.54-6.1c-5.67-4.06-11.33-8.13-16.94-12.27s-11.26-8.24-16.85-12.44c-22.43-16.69-44.78-33.8-67.8-51.36-20.46-15.61-45.22-25.7-65.37-41.91a490.78,490.78,0,0,1-49.7-38.12c-15.31-13.25-29.83-26.73-44.56-40.11l-16.4,18.77c-3.63,2-7.11,4.13-10.51,6.35,31.23,23.07,60.3,48.53,90.28,73s60.76,48,94.89,66.81c30.84,18.56,59.44,38.58,87.2,59.19l10.42,7.78,10.4,7.87c7,5.33,13.89,10.62,20.92,16.1,13.93,10.81,28,22.1,42,33.48l10.57,8.69,5.29,4.34,5.29,4.45,10.61,8.86L17.08,1573l5.33,4.52,5.32,4.66,10.69,9.26,10.68,9.53,5.38,4.74,5.34,4.9,10.78,9.77q5.34,5.06,10.76,10.08c1.8,1.69,3.64,3.3,5.42,5l5.37,5.22,5.43,5.2c1.8,1.75,3.68,3.4,5.44,5.25,7.13,7.25,14.55,14.26,21.7,21.9l5.48,5.62,2.77,2.81,2.68,2.93q5.38,5.87,10.93,11.74c2.12,2.06,4.14,4.24,6.25,6.36s4.24,4.22,6.4,6.31,4.21,4.22,6.34,6.31,4.3,4.13,6.35,6.22c4.12,4.17,8.37,8.2,12.22,12.27s7.75,8,11.18,11.86c13.94,15.44,23.64,29.23,23.17,38.06,5.37,28.19,9.78,55.52,13.42,82.72q2.65,20.41,4.61,40.76c1.2,13.6,2.26,27.22,2.88,40.93a672.38,672.38,0,0,1-1,83.28c-1.14,14.07-2.7,28.25-5,42.5s-5.16,28.58-8.76,43a47.57,47.57,0,0,1-6.5,12.38,24.65,24.65,0,0,1-7.56,6.46c-5.19,2.79-10.61,2.92-15.7,2.66s-9.86-.9-13.74.2a10,10,0,0,0-5.08,3.21,19.2,19.2,0,0,0-3.43,7.38,814.6,814.6,0,0,1-25.52,86.36c-10,28.27-21.31,56-33.67,83.21-3.16,6.76-6.22,13.58-9.45,20.31L94.16,2359,84,2378.84c-1.67,3.33-3.47,6.59-5.22,9.87l-5.27,9.84C59.3,2424.71,44.4,2450.41,29,2475.7s-31.3,50-46.56,74.41-30,48.67-43.13,73.09-24.83,49-33.82,73.84S-110,2746.89-113,2771.93a316.83,316.83,0,0,0-2.24,37.86,321.66,321.66,0,0,0,2.36,38.15,386.43,386.43,0,0,0,6.5,38.11c2.87,12.66,6.37,25.26,10.39,37.78a528.61,528.61,0,0,0,30.37,73.73c6,12.05,12.47,23.91,19.26,35.66s13.94,23.36,21.49,34.76,15.37,22.68,23.51,33.78l6.16,8.3,6.43,8.21,12.81,16.52,13.35,16.15,6.67,8.11L51,3167l13.83,15.9,14.31,15.54,7.16,7.81,7.38,7.61,14.75,15.31,15.17,15c2.53,2.5,5,5,7.59,7.53L139,3259l15.58,14.78,15.95,14.47c2.66,2.42,5.29,4.88,8,7.28l8.15,7.1L203,3316.91a108.57,108.57,0,0,0,32.42,19c5.78,2.16,11.67,4,17.66,5.69,3,.83,6,1.68,9.05,2.43l9.28,2.17c6.22,1.45,12.51,2.94,18.84,4.66,3.15.89,6.39,1.7,9.62,2.63s6.48,1.93,9.73,3,6.52,2.32,9.8,3.66c1.64.67,3.28,1.38,4.93,2.11s3.34,1.43,5,2.21a152.61,152.61,0,0,1,20.24,11.28c2.47,2.32,5,4.61,7.38,7s4.8,4.83,7.13,7.28c4.66,4.88,9.07,9.87,13.31,14.34,8.5,8.89,16,16.32,22,19,34.2,16.44,70,31.94,106.6,45.62a1087.54,1087.54,0,0,0,110.66,35A821.94,821.94,0,0,0,725,3524.55c17.5,2.08,34.69,3.29,51.34,3.85a469.39,469.39,0,0,0,48.48-1C820.28,3521.71,817.21,3518.29,817.21,3518.29Z"/><path class="w" d="M524.08,3631.2a1413.57,1413.57,0,0,0,148.58,34.89q75.2,13.44,152.35,19.5C726.43,3657.64,626.87,3645,524.08,3631.2Z"/><path class="x" d="M842.12,3620.92A760.15,760.15,0,0,1,739,3614.24a897.34,897.34,0,0,1-109.27-21.39,1050,1050,0,0,1-115.15-37.18A1127,1127,0,0,1,395,3501.11c-39-22.53-83.7-44.49-130.85-68.91-11.86-6-23.69-12.46-35.78-18.81-6.07-3.12-12-6.54-18.1-9.88L192,3393.42c-24.2-14-48.84-28.51-72.8-44.68C95,3332.92,71.58,3315.37,48.8,3297q-8.38-7.09-16.69-14.26l-8.28-7.19c-2.71-2.45-5.36-5-8-7.47q-8-7.51-15.83-15.1l-2-1.9-1.9-2-3.78-3.94-7.5-7.91-7.41-7.94c-1.22-1.33-2.47-2.64-3.66-4l-3.52-4.12q-7-8.25-13.84-16.55c-4.62-5.46-8.81-11.28-13-17S-65,3176.23-69,3170.45c-7.95-11.81-15.24-23.89-21.85-36.13A384.35,384.35,0,0,1-108.29,3097c-5.83-14.63-15.63-30.46-27.13-48.32s-24.59-37.84-37-60.3c-1.54-2.81-3-5.68-4.54-8.56s-3-5.79-4.45-8.78l-4.32-9c-1.38-3.05-2.72-6.14-4.07-9.25-.67-1.56-1.36-3.11-2-4.68l-1.88-4.77c-1.23-3.2-2.52-6.38-3.66-9.64s-2.25-6.55-3.34-9.85c-.56-1.65-1.07-3.31-1.55-5l-1.45-5c-2-6.71-3.49-13.62-5-20.52-1.27-7-2.54-13.93-3.23-21-.87-7-1.2-14.16-1.41-21.22-.06-3.54,0-7.1.13-10.62.06-1.77.11-3.52.21-5.28l.44-5.28c-.92-2.69-1.91-5.38-2.91-8s-1.85-5.33-2.72-7.93-1.65-5.14-2.32-7.59a59,59,0,0,1-1.32-7c-1.15-8.9,1.29-15.55,10.79-17.15a356.93,356.93,0,0,1,7.84-55.14,392.12,392.12,0,0,1,15.93-53,474.37,474.37,0,0,1,22-49.5c4-8,8.3-15.7,12.62-23.37s8.82-15.13,13.4-22.47c18.28-29.44,38-56.67,57.39-82.76l28.8-38.32,7-9.38,6.89-9.32,6.86-9.28,6.72-9.29c38.36-52.55,72.18-107.91,98.79-166.09a722.93,722.93,0,0,0,34-89.1c1.15-3.79,2.34-7.56,3.46-11.36l3.07-11.44c1-3.82,2.08-7.62,3-11.45l2.63-11.52c.86-3.84,1.79-7.68,2.61-11.52s1.54-7.67,2.26-11.52,1.38-7.7,2-11.56,1.22-7.73,1.77-11.6c8.75-61.93,7.25-125.23-5.89-185.47a435.63,435.63,0,0,0-28.77-87.29,397,397,0,0,0-21.34-40.61l-3-4.91c-1-1.65-2.1-3.22-3.14-4.83l-6.35-9.66c-1-1.64-2.2-3.18-3.33-4.76L53,1730.87l-3.4-4.74-1.7-2.37-1.81-2.3a573.34,573.34,0,0,0-48-52.54c-17.42-17-36.11-33.45-55.58-49.67-38.92-32.44-81.06-63.89-122.4-97.16s-82.41-67.23-123.1-101.63l-121.52-103.14A84.84,84.84,0,0,0-434.72,1347a79.39,79.39,0,0,0-.66,15.91,84,84,0,0,0,2.7,16.43c5.9,22.21,21.36,45.6,49,68.07,50.87,48.69,102.24,93,154,133.7,6.49,5.05,12.93,10.12,19.42,15.08l9.72,7.41q4.87,3.71,9.67,7.31l19.11,14.24,18.69,13.81,18.21,13.47,17.68,13.22,8.56,6.54c2.83,2.18,5.76,4.33,8.48,6.5l8.28,6.48,4.13,3.23,4,3.24c21.42,17.21,41,34.31,58.23,51.69a374.45,374.45,0,0,1,44.21,53.35,319.78,319.78,0,0,1,31,59.14,380.17,380.17,0,0,1,19.52,66.47,342.33,342.33,0,0,1,15,108c-.12,9.24-.76,18.48-1.6,27.69-.52,4.6-.95,9.2-1.64,13.77l-1,6.86-1.17,6.83-.6,3.41-.68,3.39-1.39,6.77c-1.08,4.55-2.22,9.1-3.36,13.63L71,2119.34c-.6,2.26-1.34,4.5-2,6.74q-2.07,6.72-4.2,13.4l3-14.2.73-3.55.36-1.78.29-1.78,1.14-7.14,1.11-7.14.55-3.57.27-1.78.21-1.76c.55-4.7,1.11-9.39,1.47-14.11a379.63,379.63,0,0,0,.72-56.47c-.42,11-1.33,22.13-2.5,33.21s-2.76,22.16-4.71,33.2l-.72,4.14c-.25,1.39-.57,2.8-.85,4.2l-1.73,8.42-1.71,8.44-2,8.43-2,8.44-1,4.23-1.18,4.22L51.38,2160A799.1,799.1,0,0,1-4.23,2295.57c1.66-2.47,3.22-5,4.88-7.55l-8.5,16.2-9,16.17-2.25,4.06-2.35,4-4.72,8.1-4.75,8.13-5,8.12q-2.74,5.29-5.58,10.57c-1.9,3.52-3.94,7-6,10.5s-4.08,7-6.16,10.46-4.3,6.93-6.49,10.39l-6.65,10.34-6.95,10.27c-2.34,3.42-4.67,6.82-7.07,10.24L-88,2435.9c-9.93,13.76-20.39,27.68-31,41.92s-21.41,28.79-32,43.82c-7.17,10.67-16.28,24.43-26.33,40.82s-21,35.51-31.45,56.83l-1.74,4.13-2.72,6.77-1.7,4.26-1.85,4.85-2,5.35-2.14,5.89-2.28,6.32-2.31,6.8c-1.62,4.62-3.14,9.63-4.78,14.75-3.13,10.37-6.4,21.55-9.2,33.36s-5.51,24-7.54,36.29l-1.58,9.16-1.31,9.07c-1,6-1.59,11.92-2.31,17.67-2.76,23-4,43.46-6.2,57.66l.61,12.08.82,9.89c.27,2.92.46,5.47.72,7.57l.64,5a537.37,537.37,0,0,0,9,55.7c3.93,18.1,8.67,35.73,14,52.91a686.92,686.92,0,0,0,39.28,97.56c7.53,15.42,15.6,30.33,24,44.92s17.14,28.82,26.3,42.63,18.61,27.34,28.39,40.47l14.66,19,7.34,9.49,7.61,9.2,9.86,9.7,4.92,4.86c1.64,1.62,3.26,3.27,5,4.81q10.09,9.41,20.1,18.92l5,4.76,5.11,4.62,10.19,9.3,10.14,9.39c3.39,3.12,6.87,6.11,10.29,9.21,27.24,24.92,55,49.4,82.72,75.41,4.69,4.53,9.62,9.12,14.73,13.75s10.56,9,16.06,13.54l8.37,6.78,4.25,3.39c1.42,1.13,2.89,2.19,4.34,3.28q8.73,6.52,17.67,13c3,2.13,5.95,4.31,9,6.38l9.08,6.08q9.08,6,18.08,11.88c6,3.84,12,7.41,17.89,11s11.63,7.05,17.29,10.28c11.34,6.37,22,12.38,31.72,17.61l25.77,13.5c3.64,2,7,3.59,9.88,5.09s5.42,2.8,7.47,3.92c4.1,2.23,6.39,3.67,6.47,4.21,4.15,2,8.3,4,12.47,5.88l12.58,5.58,12.61,5.53,6.32,2.74,6.34,2.59q12.68,5.17,25.43,10.24c8.52,3.26,17.06,6.41,25.62,9.56L474.5,3600c12.74,2.42,25.43,5,38.08,7.58q9.49,1.87,19,3.85l18.9,4c50.33,10.73,100.13,22.74,149.7,38.08,6.72.75,13.45,1.39,20.18,2s13.49,1.2,20.27,1.75c13.53,1,27.13,1.94,40.79,2.64a223,223,0,0,0,32.47-.5,112.19,112.19,0,0,0,23.87-4.75c13.29-4.37,21.53-11.12,26.1-19.19A165.68,165.68,0,0,1,842.12,3620.92Z"/></g></g></g></svg>